<mxfile host="65bd71144e">
    <diagram id="zsUHQeSntFaWW-0TIFLB" name="Page-1">
        <mxGraphModel dx="1642" dy="1775" grid="1" gridSize="10" guides="1" tooltips="1" connect="1" arrows="1" fold="1" page="1" pageScale="1" pageWidth="1100" pageHeight="850" math="0" shadow="0">
            <root>
                <mxCell id="0"/>
                <mxCell id="1" parent="0"/>
                <mxCell id="2" value="" style="shape=stencil(7VvLclwnEP0abSloXs3acf7DVZYjVRTJJct5/H2aTHE1HGYOnl0W3snygQtNP04/dBc/fHv49PX+Tvy3t9eX3+//evz89nAXf7kTeXx+uH99fLOf7uLHu/jhy8vr/W+vL9+fP5/+/fVTR/af/nj5s+/w92lddMX3ReL/Of1C1EX97ze/nvBPj88TPuuEj8GFSPFlxicXb8IXp4Hi04xvTj3Fxwmfogs34YsrmeJlwmfvfLsFH51Uig8zvjjh8oT91VW+f53wxbtG9y+z/Its3qvO+laSS/Q8Fc6TXROG1zbj1Ulh+Dbjq6f6kJyPiM/0/Ov+mm44fw0b/amC+Ejln5b9E91flv0L2V+GtpzjiT8RV27Ex3TbeXy95b7Bab5Fnsdpf/C9AtrXRh8C+p+NvtntZv+w0f/gBOyluEDPL/N5StycJ8z6Y/6EydOjvZh/q0QfTHrzecx/snjkXZnjS2ojglzBp/l9E5ePR/n3+EL3j/N9k6f+3I/ofMS7OiL4NTzEx7yRP+hDtPOTeGd42N9enOib4Wf5SNu8V5jtRaoTet8w64Pk8SJX8H6+b49o9H397B9MwxvHz/rfX4Se38/xMagrJN7ZfWd5hkLj+6KfITml79UAH52n/lABb/6Txt8I9/X0ffOwvoFvw6AvwiuaV6Psobma8fSeaH9Ywov9phF3ZdKOsCAPRnR5gT3nbGCmEI0taM7PHs5iYCIeqLv0+QtSKAXqbwYc3bSWfSG7PIvVnIoSo7dnK6uXY1G+jSBxuNGN2oXxTMeC7DzLexIaWjIizYhWcXG2/CxO2Bd0OJ5jQXZKlPX9iseC5hK5dEpobBa8EzlSqi7ND1cqzX4s2WkLPWP2kBPmk7W4xOxf0aLVvkkubfkIRBDNVDUswdBZSmoUgbj40jDmtEg5QpfJfKRWhtu/vCChLrVKnYAJ0c/v0JSGtVpRNewLLI7YAvBLdgdGFKriO5iUmF+yBZDq2juw1NIWQKyyl2b2UBuqt+kSKx7owkYqz0Y1DKdyTt/JHVQGOzvLjyu5g0bUVrMQJRZnMsEKgtAMXysqn7mFwL7QUErmqRiHaQvJMOfJiiBNMIs1f84MyFRNgUZyGt8SOrLObNgXMn4hmIWwL5QhkzMmFtilD6mfUSVKZirmjjqowTW8znfOlJqbSwEu6Wlw6HgFfOL7g4R4amR4RTxLxdvClDyltoaPy/4cD7m+pxTD8BXxwvdveB4WOoNfkgvP7bJhMu5HdeQqHsj8oMdXLxwBL3x/KGaGwaav4aUAnipcG+95hmcPoPhgvFZkeCA7PFfuBoMKyqjOJYOsGwPOgM/MxykW549qwVX54P4bh9LQQXj+XlCM8jwKNAwbnmZ3XT9RnvS92oi873jW6+j2gvjMss1LBsyKYzcv6BKdT5S5RSoyWaXZe3fpS3kgMBekSGQtSjInZ0EMCliWL9NHtjwNKjrC3XRGGRmXYJyuLTV9YyuRMN+2kEDjQ4UpksdIk4Ragip6XuN0rAyqBflQ71MxXnoozllyyuiNEVlI4S0RY+HVqDKmjp5m5EbGoffU0yTivzp7BwJ15LfX8gModHS2zS7tsb2ivEBVF5fRjg7ctQXQYGm8gWlZVIWSmdKo31NHiOKe+2FLmqAI1j0hS9SWilM/E8tOPZqc3ZotKIp1WssAPHkIS8ugkdA8bZyXgF9QnjDninW5rsDkqc0iIfzb0zCTS22klscCoV9IBY268GmBFDH/NbmxAJH8kMmxwNNkM9ZRRDj8TKEkJmas4Pf8l7x0FCxpm9zoCIOxavDGmTomC5pwB0uYmT1YwAGTizocyeUFCXPHmGjlr3c1oK/jaaE9NKxD2CFZwhzqMnkSaXoX8sLmG62PBsFebuC9xLA8XCcbLKIsKTwvpZQlP5LNsAGUwUOg8ScuzaBImYng8IbJmDUrBd2wCVRJABXk55tmlizNQd4sE9TqTTNO0Llsmn2C8tw0E2VpvfBmpSC/2DRDA+bjm2brasS8mRtQP3uzmNkw5jubZvSyf/LUbR1e8MDzYa1F/r1ZT/UNit6JN1AEh80s5LLcQpbabKH6FrGbWHgFKCKP6v0cOpwGHaZSaIIdscBk4T6Q8/wcjvo5HDXj/2/DUev+zJ8E5APbYSpInTbDimGMXpyxYzYMGVB/NsOWS7zYDHPKQo35sOiK58OoK54PuwoWfzbDtAt+M6y7xN99fJntfTNsLFh92wwzC9afN8PSF/kAxwM/4enbMiTRy3v8/BnxdDDkwnAX55NQFzM8I/RLm7APltD9wV8JH3cQ5D8b/BLfN+eJmG5v7htHafQH5bkMk2/eaxn+3+jD7X9csMPbD+9/yfDl8enp9IcQ5/+Pf/lgvzr91UT8+C8=);lineShape=1;" parent="1" vertex="1">
                    <mxGeometry x="13.977597916713918" y="0.8517053520945623" width="4.180799328543635" height="4.66428294823608" as="geometry"/>
                </mxCell>
                <mxCell id="3" value="" style="shape=stencil(lVhJchsxDHyNriiCO8+O8w9XWY5VUSSXbGf5fTBRcTIEZ5rSbSyjuWBpNLhzD++vT2/7nTXvH5fz9/2vw/PH68592Vl7OL3uL4cP+dq5x517eDlf9t8u58/T8/Xvt6fJcvr6cf45rfD7iiuFSplQ1vy5/mIo5X8/fL3aHw+npb0lx429Ixe37bOh2NpH8mbbPslyprHPlOy2fQzkc2PPTAEAQqLYbsCeMgD4Qqm9AWfyAQA8cbuDFaeVbYArdb0ZEOsh1wFJA5y4Ge0QKbRRdnJpEDYBWBXmTBlcWgDGNwBvKSYACFRiC4g1tTYBtgUUiiBVJ0Abh2BhLgkgt14KgYK7C5CJPQa02RolcDgOyq3RkRnEwbWAuUI2U0PtkLCXYs2cGTBzyFa2unaHZInRpbO+Q/JkUT0IR7SRTpEYXVoqLrWAec/1mjbEbaRTwaxhqLSRzkweeMmzppnsiEE9SH0pt2Zfl9gCqOTLsZLtOsDVZJ4BCUZaALZNjVzwkYTt20gXxtwqgDZwxVWm2gKk9tJFvASST9g7qh0KGeylYDTA4dRg1gBI98LV3ZEyyFbpma7boYBLWyZuuZWNgbeWpmm6MxVwprRyBxQHVyt+YR9AoE3t+gt7lBgSBJV5uZL5uou6+2YKoL9F7VGxR8UmskVVpwBQ/fMsjBYAFDIr/TDcA3BCGOaeIwkPh24HyDBWq8OBV6U6VbcahG0SY+pIOC+Eh32XqCjxpB+mogEws41WoIPSkVpQlx5WpxB7d2tEAKWLNGYY3wUaU5jwS+dUxJHz9RZhRp2nt8ekbbRwG3QF1lPJoO2w7s2DvsZ1KLqxcXLVpTd2ZtY5Omj9VvflgbawWswPxIur48qt6khPeQP5FXT3GOg7oUalB7GAlPlMSVqsUJP250ACS7dUUzPW2Fl3s4GIz/r8gylB7NX6eAzJOt8Gc05nPxikens8qWWtAgejYLf+YNbMmj8Hw+w8TC+nZegfNU1M4zjwT+leaTwc39noN4upS4FGzKKHWvVh50FyqyWpljGRDAjBpLjanBPF41CbLFq5i0iFryKJrFK9DB+zptlAzWjwzoH141qsY+Q6q1idpg6ySuwejubXtnVWMVoWGNiVhKSMfhxEXUNIMERlzyCJUqJolb1BVcb9eQyqYmlaSduD8+dMXp8frS9NvdxzfhEZpfMPsk/k+Q7/i+hRbQDHdyEjb0ugu1+Lh/by8f9p+uVwPF5ftpf/10/Z8tP1Gdw9/gU=);lineShape=1;" parent="1" vertex="1">
                    <mxGeometry x="14.113667687954461" y="2.141257037609577" width="0.22315368044622935" height="4.953006408089093" as="geometry"/>
                </mxCell>
                <mxCell id="4" value="" style="shape=stencil(rVjLbhsxDPyavRISqec5Tf8jQJzaqBsHjvv6+3Kxlb2ivNMW6G2jDEWR1JAjT/Lwvn96203s3i/n0+fd98PzZT/Jh4n58LrfnQ8X/ZrkcZKHl9N59+l8+vr6vPz99jQj568vp2/zDj8Wu1opp9mK3c9lxZNbFj4u+OPhdY1PVGKHF+IA8EyBO3whJ9v4EimF/jyBKgMDR1w6A9YV4CELxd4Da0wg5JTafteQA/QQC6U+p8FTAUmKjmrtDSoFcKQgJL1B1Bj8toEkEt8ZJKGUtw24Uu2DTroCjsSak95D1lLGbQNfSXJ/MxxFUGkfyfeFK4GyAwbeVroUEmBQKPT46iE+keu5UIUyqHMg6XNaNUUFBECxr7KyNaGAKUSLz3B/HvAV3CJtDW7Ag/1dy8aVy861LTYMQhkcgIQq05PFF8BMR34IALFAT+stPsCARzxj/FDg3ytb8ZqClUbTrXxmi0dtQgsmFp8B6Ye+NeNBPn2bFevzgPr6gZAaL9w/DvfHw/3NsFG8YDxbfIT4ONyHjFocybB/gfGO9wflxzV2/D0h40Aw7MB2OA0AEsAPBcjwQrth/wiGjLvTsQTjh3j9f8QLeVPgCOVWaNlbTRgH8pmJzYVwlFBH14L1DkqmBArgxVJehzASdL4MuqBCuaU5MlM1Bzhl+NpzVlKFQReV2Gp0NeAW1f0qsFWAKrc84LHKt9LXORQ4iWO2k08lowdES3pveuaINK7evxlM0l9VlS/Ig5bJ9UdSxRaRdA9W6nusk1VdmTpkSE7lSu4dcJPB9/GlqaWG13YDijAPr2jwaBrfhu8Kj+LV3jDgQfOde9WAB2SeeyFbPMqnip9q84PPX+x54NtveEO4Jvk38fY8ETavob279vLadJAMHsmh2/C64StO6L89pv+I14/by/3lcDwuD//1/+1LX5eWXwnk8Rc=);lineShape=1;" parent="1" vertex="1">
                    <mxGeometry x="8.02380053474785" y="9.24139144438925" width="4.155234995636154" height="5.481424979383329" as="geometry"/>
                </mxCell>
                <mxCell id="5" value="" style="shape=stencil(lVfLctpAEPwaXad2Z99nx/kPVxkHKgRcmCT232cUSoKZtVrmJpZurXreM4SHt+3T62Zg93Y+HX9u/u6ez9shfBuYd4ft5rQ7y9MQHofw8HI8bX6cjr8Pz5ffr08jcnz6dfwzvuH9wnMU2khi9zEdOPf/4PsFvt8dbuCemjPwGJbhibyGB/JpGV7Js4JnchF8DBMHhfeOPCIUSkkTEiW/TOBITt/ATL4sE4K3N3CjVgGhUc3aRBWaNFZKmhALBSA6FYraqilTAF7IYnWtISdyeZlQxEo6iEqAhOrJa7NWcRywUi02kGqGnm5MVWtoErrAca1MNpkJmSIidI6TEyRa/m7BEvwKoVpCQMnp5uS9YayIaM0SMoi+kZAsoQDPjWbqRDQgYnxf90nQc0LQom/ssMTInZlWrkhsCbVBQuzNhG+IvnMEY0LvahxNsdOAoukaOl+P19SJdqDQjBKjJtQpHhddHTrCSvR1OedW4rvzg8d+aJ2VGIheSFLQhD5nJCy7dbWp3Cu7Yl/3hm3Y18X26vUs7a/A0ZFiR8Cq7ySUaR6ZCbj3ShuyN8yN6fNGl6maRid3gviTxll1WktzRUknrbnogiwnDWiQ5l+0BjlBBBk4vA4mOWE80rAuHOMJEB26SiMnARE8sdYQHIxvGVSLNivjkcaXbhbNOKu9TTm/4jiqGp9h6YsWHmEd87bryiALXOaILRyNYwL3Fg5Sf57ir3C0B0gd0RHtYHw6O9PPKbQE9waeQRXqarWbYvWrb4/4Y6KBM/4Yu92hMdtN/f1mGYRvZ2tI1Ftl1bRSUf2/czNdhcvDdQl+2e33lx369n+7NMvRZeEOj/8A);lineShape=1;" parent="1" vertex="1">
                    <mxGeometry x="18.862619643942764" y="8.266950599987773" width="10.075167932435681" height="5.9370666668309475" as="geometry"/>
                </mxCell>
                <mxCell id="6" value="" style="shape=stencil(lVfJkhoxDP2avqpky5vOk8l/TNUwoSsEphiy/X3c6TRguXmEW2OebC1P2yBPH9uX983g+eN0PHzd/BxfT9tBPg3ej/vt5jie6tcgz4M8vR2Omy/Hw/f96/z7/WVCTl/fDj+mG37NcqqkbpLy/Hs+YVL9e/B5xu/G/TU+UeEGn8gLwAtJbvDOU2AgwORTK5BJym2BEklLI+CFMjChMIk2AuKWk1WBLBRblUQp+9sCKVIKjUAoFMNtgZgotSrFTBEYHTJx69aUKAO3SibXCuS4OHpVwGcqrQ3FL45eFXBKwbcCSgJeqESI0ghoWJRcj4N9QM8nq3gmNnglFxHeGXwhhXivFo+IxxSdxSfgUaacOjxgkSN+6H63ZO61/hAfuvsV5L6j2Psf46PFC/B/1UctPgL+OFuKKj4jgpIrFq8gx2rlDB0e8sEkveNKWfhA6BykgBCVoJ1CBSdM59AEE4DZ4gPUp8d7rE8XgH8Uv2VvR+gCCFf92ScAvD8Vi8f+0e7+hAnXJXyGCS8dvuAE7uLLUJ8+IT28v0/4CPj8KL52SVOAEuSbc5RMxgucVlyxGpWy5Nx6l6zjUOvS2iUdoJDUcanNgRzgPBTSEqJzp49UQJWL3fBRpwtU1lNYZpPztJJhH8veNmLBeZnVGi21t4E4lEC5ZV6d6Rxgag2TmlqKjVZP3BpdyVIAlzRSaONQ/YwG32KnG4bT0KW3X/BwsD736gvegVo69Wp7PyN71U5DuDdNvdouEnfwphjd1Sclay/g3NTq2PoT+WdlEYLxUrt2nMe79dLCXffjpTr99wOomT28yd3F14/L2vg27nbz1nn9v10z69G8osrzHw==);lineShape=1;" parent="1" vertex="1">
                    <mxGeometry x="1.5168480157940678" y="16.759130334793973" width="4.397596050566776" height="5.027686010442739" as="geometry"/>
                </mxCell>
                <mxCell id="7" value="" style="shape=stencil(rZfJbhsxDIafxleCFLWe0/Q9AsSpjbp24Ljb25fT6bQW5fmNAL3ZGn4Sd1EbfXjbPb1uN4HfLufT5+33/fNlt9EPmxD2x932vL/Yr40+bvTh5XTefjqfvh6f5/+vT5Pk9OvL6du0w4+ZE+I2QYF/zgtMQX4vfJzFD/vjlXgiLp14pKrr4iIUuZO3lVQAkKn2+kihAE4ISk07wFRKvA5oIK0doEoS14EoVJ3NgUoCPhJq0gEpUK7rQLYTeiCbkuCEYlHr3WorGgDQSHIPNAptHaiZOHZATdSASi0scV0AWxEEFG9Dy6QgNVrzXmoVq9SohR4wN4DUmIDmgQACJ8yDEY0iNuKPyldAztjq6IEKQm2fy6BSAxVkn5MOAMgN+6yDDXcAqe9UiQeVKmhLUyYMQEa5UX2fmQKH4mAnDG4NKNIGZA8w9hI7L9kWoDFNCkQPVAzEoYIqLojUBgAHruTBBhS4diMOjG1oZYgDOGGlRu+0geGIjIE65HfBXaCMFfS+QBgAOtMY6is/rGbT2AZwZ/L5an74r0Cm4LKpLCu3AVla419AiUEbsEst9H61iw+VUKl+oKm8NLfbgM1TfahLgPlqwwD3QNZli7VxQ/o2kJQSUCkOM19UysBoFZ99GpcGvTaUiRvKEiw5G/tcakiFQ5kwpT41JFBERpP0NZ2ogFuUvbhAdXhQH9aaifdpylRBhIcGxpTBRWLi4sQTCBb7kZ7hGMbLVHf1YICecSXMS2qsiKt/jqD6NcuiF4d+z8PuULwOu0NTW/WmoovpfS+vu+L2498j72V/OMxvxOvv/lFoS/ODUh9/AQ==);lineShape=1;" parent="1" vertex="1">
                    <mxGeometry x="9.396022207327142" y="16.480640276617933" width="5.416141117001227" height="5.049063068501848" as="geometry"/>
                </mxCell>
                <mxCell id="8" value="" style="shape=stencil(lZbdUttADIWfxrdnpNX+XlN4D2YIjYc0YUKg5e3R1mOIlkSd3vnv88pHR8c7yc3L9v55MwV6OR0PT5vf88NpO8mPKYR5v90c55MeTXI7yc3j4bj5eTy87h+W8+f7/mQ/+nV462/4s3CNUEKnAr0vV2JCan+v3C3Abt6fAxmlGCAJWnWAhsoGyIKaXSCJAUoEeyUltGyAqis4QG2IFmiMFh1AVbIltYLE14FCyFYlJgLRdSITJNolGtiRKRGq7ZzqQE4jooBtI2oFO4BUkAVK84EMsrrmBhIHKGMjUkV1VIphXCGqW5zO6W1pFggITklaQK4G0CKzs0KuaMkCGSE53lARrZlU6OB8dG+TXUFbGfyBoGFG6V8zykPjCLFcB87c/OkNWoPh8hI6MBbQofJa3UdysGtbX3FZJh36YUg1GJySeqzYkr6i53KrBeXbjFYnBjQa6wBofHozmhCHoVZZHTN1QP4HkDima09Dx0whrm7+BBKyE0yc1rQ+i43ofHRBtW4tDHHaEMYwzrym7cXn1ar2AxKvKXLteWuLSODg1ZNsYgRfUc0TWz831xQcR4GYkZweBxmBBHEmRz0x/Bm0AY6garpBofHfpgdfO47HebdbNizn98cdil5adjdy+wE=);lineShape=1;" parent="1" vertex="1">
                    <mxGeometry x="7.551733459271993" y="15.888668983496068" width="0.15194095107178912" height="0.15240705508184932" as="geometry"/>
                </mxCell>
                <mxCell id="9" value="" style="shape=stencil(rZfbbtswDIafxrcEdRavu+49CjRdjGVJkWantx81w2tEOX8RYHeO81HmmdQUHt72T6+7yfPb5Xz6uvs5P1/2U/g0eT8f97vzfNGnKTxO4eHldN59OZ++H5+X369PjWxP304/2gm/FjkREt+kPP9e3jBV+fvi88If5uM1X0hSxweKHvCBUn9+pQr4mkhCx7tMwrcFilCqnUDTyAEBR7n/QnCUgMnZW4GoPiq3BVIg5k4gMcV4WyAG8tIJZCYGXgqBxPUCdY3LpoBPlEonUDIVoJKrq0/+xU2VrEBAjTYCekQAkSaJHS9+1XHbqxRyz6f1hG2TB14zBbmInFgeesiGQPmKHERp0EeAvY5cn9eOec2rTQGmMhggGfExDQZAfsNBoNBU2zgEACQ126pRPsDz3cA7yAcTsAoTiCkPfIXnS7U8TqBQ7uNLHPQB+eCJ82Av8L+3TUj9ySCh/dpmr3jUIZQf4hUh74eCyZBnb/kK/ZnHegENwtn8+bggZVBIgAG81SHg+b5YvsAC5oFPUJ+NgsT80FDcf+TD0LAS1KcMCeHhVHXacnsH1QIDpqtJNgKeCiqxQLk3QcewA0NAVxPTVHTQB7CsRM3SvkskrTI0Vp1t01HgBqirSTYCvH5zW0A2Fi4GeVqKLQStbbRw6WpS+zhoZAL4ggy9t0ITNNFKn0oetgrdknPPM9xJlS/Z8B4Y3LZwyztkbyXvDM/o/EpRLA/yuk2ugQedq02Wu84Xu8wxHE1tUlh7UZm1ScHW/+gWJPaWovEFu+7VpHgXQK23fcA6CO0Gd1/jPuT14f3O+DIfDsuV8/p/e8fUV8v9NDz+AQ==);lineShape=1;" parent="1" vertex="1">
                    <mxGeometry x="12.548624857924757" y="23.37160581585644" width="2.7626189731693604" height="5.259236496061315" as="geometry"/>
                </mxCell>
                <mxCell id="10" value="" style="shape=stencil(lZfbbtswDIafxreEJOrE6657jwJNl2BZU6TpDm8/GobciLb/NEAuHJmfLJ6pgR/e909vuyG498v59HP35/B82Q/8bQjh8LrfnQ8XfRr4ceCHl9N59+N8+nh9nv6/PY2S49Ov0+9xh78T5ynWEQru37TgaPynv++T+PHweiUeyaVOPFB22+KlvW3imWrdFveOcr+9rlQGQCQxQG4nXAVUvSy9AoFqAUAh6VVgT95vA5ypxA6IjmIGJs2USgck9YFsAylT7n2WHTmgQ1aAe0AoAT+UbN1c1AxxG6iZQq+0rmRwJImU+iMJw0gSodgfSQo5EKkKGE8rEIDSCtRigQwcp4D0fpBKHhzJO/WTs0TGSkjoASGPzVSyBRL+QooWqBgIxQKC7FoXZroJFH/XkSpFuUvpSswLs4KkViCY6KstpzaBYgGPAV5GH8qgSmmREKhsKFCdBRw6krSqMgO5heMWwHkBIB00R709kr+Ro8ECN8JbFlYSkNTrOYrq98onalv5qhJqOOQ5aUXiCijYc9YRAuv36Oo+R6/s8NVoUrXuC78bAFNZhB8yU00Ue6DOTWO9zSUKvZmqowKUzolKX2hKIAZ1I6U2vsydV8cNAMRku1Zi2OY4tf3mcYPJo4FGU7IHmJtW6xkhrQ7NI1NqpWcdYDsy+dpcue5pOwvoDgnNM5RMJEEF2A4zCXYT1wrKbB9iKM5WHM1ijnwfcqGNixvii3mbQS1a1C4PK9GKOCqmzvYDPAm7Vso/rxZYVY5GPIIa52z708+BIHC2mKgy4DCenLfioDB4Ox6oOGoy9126borrw+f97uVwPE7Xw+v39j6oS9Ndkh//Aw==);lineShape=1;" parent="1" vertex="1">
                    <mxGeometry x="16.843711039660953" y="24.13682082732568" width="3.4530020806373254" height="1.9637104286009637" as="geometry"/>
                </mxCell>
                <mxCell id="11" value="" style="shape=stencil(lZbdUttADIWfxrdnpNX+XlN4D2YIjYc0YUKg5e3R1mOIlkSd3vnv88pHR8c7yc3L9v55MwV6OR0PT5vf88NpO8mPKYR5v90c55MeTXI7yc3j4bj5eTy87h+W8+f7/mQ/+nV462/4s3CNUEKnAr0vV2JCan+v3C3Abt6fAxmlGCAJWnWAhsoGyIKaXSCJAUoEeyUltGyAqis4QG2IFmiMFh1AVbIltYLE14FCyFYlJgLRdSITJNolGtiRKRGq7ZzqQE4jooBtI2oFO4BUkAVK84EMsrrmBhIHKGMjUkV1VIphXCGqW5zO6W1pFggITklaQK4G0CKzs0KuaMkCGSE53lARrZlU6OB8dG+TXUFbGfyBoGFG6V8zykPjCLFcB87c/OkNWoPh8hI6MBbQofJa3UdysGtbX3FZJh36YUg1GJySeqzYkr6i53KrBeXbjFYnBjQa6wBofHozmhCHoVZZHTN1QP4HkDima09Dx0whrm7+BBKyE0yc1rQ+i43ofHRBtW4tDHHaEMYwzrym7cXn1ar2AxKvKXLteWuLSODg1ZNsYgRfUc0TWz831xQcR4GYkZweBxmBBHEmRz0x/Bm0AY6garpBofHfpgdfO47HebdbNizn98cdil5adjdy+wE=);lineShape=1;" parent="1" vertex="1">
                    <mxGeometry x="16.46146117240454" y="22.01410932172304" width="0.15194095107178912" height="0.15240705508184244" as="geometry"/>
                </mxCell>
                <mxCell id="12" value="" style="shape=stencil(lVfLctswDPwaXTEkwec5Tf8jM3FqT10747ht8veFqlAhQXs9vsnyAsJjAS4nfnjbPr1uJmfezqfjz83f3fN5O/G3ybndYbs57c7yNPHjxA8vx9Pmx+n4+/C8/H59mpHz06/jn9nD+2JXCpU4WznzsbwxFNP/F98X/H53aPGZUujwjooH+EjMHT5RyABvKfXxWE8FBJTFX/8BZ8kZYCBfUAYFGiRPnDoDzsThukEMOgcvBiDpEMn0IQUpMwjJB921mCkCA441xbUNUjeQg7TJ2M4gB3Kg0VYiLp2BtNKDxllLuS9rkawcKCtl1+MlZ1BVJlZMMoYMKJLwpu/CPBwgoNVbgzcRBeT7gIonVxD+M70Gb6H/kjQexSO8NgMe5Osp+gEPKCGDG4b4gf+gOTrXB/gPei4Fz6CegbzT+AAYesl/AjMj8Q/+i4X1GQbgcw9cq3/UeAv9sxvwwL/wpwzxQH4mM+DREqr7oKlPhnzmgW9oK/KQr/QX8E3isRqP9jrXFdvyE8ajF5yH9ZTpKAMe8kGdfDfxedg/KJ6VLe38QvxYf4bze2EeAZ8FP9Q/wnjcsD8R3+7Fu6qUmv2P+BCGfmXYL2vIq4BCVVOXDdLQAUMFGMwl7SmXZcRAy3g4A0RHGHAI+0E8iVJBh1jweipFCznwhejrElzVVqqL7LKec5U1q54TA/CFbOqxuCrGDIkhUklpIdEKGYnYUgNoVC+U4V43bm39NRmuZt/dkvlK/hl4tAreGoV32L8LCm8x3rPCI9rN0lD7R6Mm+Fw0HoyyTLr19+HVGBgonQQfsq4P9p/0NQ6t6lnZDv26gdfxeLCqG6n9ZRBwwvfdQ2/i5eHr0vuy2++XO3P7v74ky6vlgs2P/wA=);lineShape=1;" parent="1" vertex="1">
                    <mxGeometry x="26.826454504464117" y="15.714960730179783" width="3.380912725986647" height="6.448205387804999" as="geometry"/>
                </mxCell>
                <mxCell id="13" value="" style="shape=stencil(lVfbchoxDP2afdXId+s5Tf8jMyGFKYUMIb38fU0ZL1jGZ7tviznHtqSjiyf39LF9ed9Mlj/Op+P3za/d63k7uS+TtbvDdnPancvX5J4n9/R2PG2+nY6fh9fr7/eXC/Ly9eP487LD7yuPKfGFZPlPXTDh38LXK3y/O9zBLYXcwC1FM4ZHcu3ukXIcw4WkhRumbMd440lMS4hkHLi+Iefa+1tKCRCE2DcExxT9mOCSvpITcsAGnyi0V/KZAjghJHKhIZSVLCAIxempjUIiBlFLgYI0hLJigZeyq6KphFyEwiDQTCG2BIFGS1FSa4MEcogglNvASSYByi4EsS2hxD5jQtYEC65kmIlZMzyQ68MjUL49NALp++ImpwmCIlf2604Q7Kaok3r2w4jhO6sFlY2SYR0B1hnRdelm1ohgoyYErCYbNMHhK9nOBoP96roTGIvJK0KuahkRVJIWwoJbo6wkZF55JekCt2C0pDVufZykC5ET0YQFbUgXuQX15c6IBb+mTq4LGRTbavkfSRrW1gFvOsJCGVhHCNXGmTDPH6MuZBSBq1WP+1wZFlSfc7VWjTqpUZ001sIw6tW+69UCmnuIWkwhV7WM5g2j5g2BRpeJJrQJ4ZkcaEI21x41j0CGIjihzJwqq62rjh7Nfb4NnClWob5IXsnbUAb4oLtimbDgVMxtDBwFEALW05KBMzfXMeQGRyWP67+3iR5lTVfuGLr+ATwAeRa4VXAPRqQCTwpu4e5Gm2qg362+DBrwZpXfwYGKWZcrXEBZ18+l3WO3OzR11bNuEV4+bi/It91+f32A3v+vX5xl6fpadc9/AQ==);lineShape=1;" parent="1" vertex="1">
                    <mxGeometry x="32.157742882586376" y="15.575599652528389" width="8.037449608546494" height="5.24951416587027" as="geometry"/>
                </mxCell>
                <mxCell id="14" value="" style="shape=stencil(lZbdUttADIWfxrdnpNX+XlN4D2YIjYc0YUKg5e3R1mOIlkSd3vnv88pHR8c7yc3L9v55MwV6OR0PT5vf88NpO8mPKYR5v90c55MeTXI7yc3j4bj5eTy87h+W8+f7/mQ/+nV462/4s3CNUEKnAr0vV2JCan+v3C3Abt6fAxmlGCAJWnWAhsoGyIKaXSCJAUoEeyUltGyAqis4QG2IFmiMFh1AVbIltYLE14FCyFYlJgLRdSITJNolGtiRKRGq7ZzqQE4jooBtI2oFO4BUkAVK84EMsrrmBhIHKGMjUkV1VIphXCGqW5zO6W1pFggITklaQK4G0CKzs0KuaMkCGSE53lARrZlU6OB8dG+TXUFbGfyBoGFG6V8zykPjCLFcB87c/OkNWoPh8hI6MBbQofJa3UdysGtbX3FZJh36YUg1GJySeqzYkr6i53KrBeXbjFYnBjQa6wBofHozmhCHoVZZHTN1QP4HkDima09Dx0whrm7+BBKyE0yc1rQ+i43ofHRBtW4tDHHaEMYwzrym7cXn1ar2AxKvKXLteWuLSODg1ZNsYgRfUc0TWz831xQcR4GYkZweBxmBBHEmRz0x/Bm0AY6garpBofHfpgdfO47HebdbNizn98cdil5adjdy+wE=);lineShape=1;" parent="1" vertex="1">
                    <mxGeometry x="30.7309505644575" y="14.078884402562345" width="0.15194095107178912" height="0.15240705508184932" as="geometry"/>
                </mxCell>
                <mxCell id="15" value="" style="shape=stencil(lVfZbttADPwavRLcm/ucpv8RIE5t1I0Dx+nx96UgrK3lWhPkTZZnVryG5E7h4X3/9LabPL9fzqefuz+H58t+Ct8m7w+v+935cNGnKTxO4eHldN79OJ8+Xp+X329PM3J++nX6PZ/wd+HVSjXPLM//ljeO3PLi+4I/Hl7X+EIpdPhCwgDvaf5vfX4mF7cJUsj1H/CesgMEJl86QmDKYZtQHBXpCZUKIGRP0XWEWMnLNiEpoXc6CWW/TYieXO0IuVBM24TgKXGfhtTe3CX4QLUniB4BTNI05d5pEfIVEDQPsSPUQB6E1VNIPb5SBj574mzxAirJURaLr6C0HXmjBGZiEFMmGRyowAGmWAcHQAo0oG4IEFCCWhstPhSIZ4tnkGEmZ/BCAhLMFILFZxjPnCw+gvMd8YAPEB/LgEcSIBnwEWlsyJdQAgXnm8RX+ALaigp2KGgGAlB8sfgA6se3aK/wCdSPb5NihUf2azyHeq44X329fS7IOgisAoO4leNakFAwfjg/Q8HwkDDU1e8J0kH7bUcUqrBB2A6tgsT+fgkvtoPq9HfAXxeHGVPaunC/4gZJihYJiJCuArE3qcT25v4k1ibXm5QzRSCyxG0VuM76AsdYZjvro7YhYFKubVBf9xWBg6+UJqvrCqXCBHUqkUr/hTnQIA9SWx1cpZlgWGu0O1ehAPKma6brLWK4oinelCpTAkpQfLR4NAoUX9jgHVCCCoWdwTOKj9hlCHe6eVJYeyC+2t2A2/Dcwods/UX217bfruKJ7RGLj6BCb5vVqh7A+atJcSOgWfPle9CneH24XbpeDsfjcmdb/28vafpqueCFx/8=);lineShape=1;" parent="1" vertex="1">
                    <mxGeometry x="23.894827665205533" y="25.320806755971972" width="2.344931232464371" height="3.6116984018000666" as="geometry"/>
                </mxCell>
                <mxCell id="16" value="" style="shape=stencil(lZfJctswDIafRlcMSHA9p+l7ZCZO7akbZxyny9sXqirVBK1f9U2m8ZHYCICDPLzvn952g+f3y/n0dffj8HzZD/Jp8P7wut+dDxf9GuRxkIeX03n35Xz6eH2efr89jZLj17fT93GHnxPnKIcR8vxrWmDy5c/C50n8eHi9Ei/kciOeSHhd3CUqqZF3gSStA16ocAOoQrmuA+JJYgsUqgAIjkppACkU4joQFZAGCAqEdSA5Sq1KUQGgUl5MXLxaaPy5ChTr1pygl0qk3Lq1BGIQuKpGt3lRmSoIXK0UWxuq5gqwQYHiLCAgDgrUaIEE4uCYZxuviJrvOqLC/L5hRKWEAesm3QK7SboTNgLBLXDlh9tEodwfIRAInZsyCp2mcwdErJILFnAgwUegvaR1uSOrKnXpF7HRUizg8QnJW4AxUI1Kec7HtVBbGzaB2F0IqFK17WHL6NrZoG4Fl3QEuroBA6eAicNGalRbLLeST69wtkDGKoX7LpBqfPcd7QsNLANLNv9vobkb4LmpLYCnAGzQlhNME4q4L2aKbdnQxoemk6SBaHNDVzKwIbGdHnTlb/m8PQzwnM3LMFDxuMFzP1gAPQGoJI64zT5h2FK8tyrpChpoXKTYnqBjGgNAh7jWSQVaoD5tt/dwdx04Wwe5+bgVceMeB73DXTckATezmxjchu7clhad5EB+sp2eNZuwI8WIC8jNLjX1OKh7Lkac0TRFbJVBBcuRr1Yc+N3Z4sNweLzz1bIprh//Hkgvh+Nxel9d/28fVLo0Pcbk8Tc=);lineShape=1;" parent="1" vertex="1">
                    <mxGeometry x="27.633276351005165" y="25.18139912639539" width="3.224205618263852" height="2.9355820933010075" as="geometry"/>
                </mxCell>
                <mxCell id="17" value="" style="shape=stencil(lZbdUttADIWfxrdnpNX+XlN4D2YIjYc0YUKg5e3R1mOIlkSd3vnv88pHR8c7yc3L9v55MwV6OR0PT5vf88NpO8mPKYR5v90c55MeTXI7yc3j4bj5eTy87h+W8+f7/mQ/+nV462/4s3CNUEKnAr0vV2JCan+v3C3Abt6fAxmlGCAJWnWAhsoGyIKaXSCJAUoEeyUltGyAqis4QG2IFmiMFh1AVbIltYLE14FCyFYlJgLRdSITJNolGtiRKRGq7ZzqQE4jooBtI2oFO4BUkAVK84EMsrrmBhIHKGMjUkV1VIphXCGqW5zO6W1pFggITklaQK4G0CKzs0KuaMkCGSE53lARrZlU6OB8dG+TXUFbGfyBoGFG6V8zykPjCLFcB87c/OkNWoPh8hI6MBbQofJa3UdysGtbX3FZJh36YUg1GJySeqzYkr6i53KrBeXbjFYnBjQa6wBofHozmhCHoVZZHTN1QP4HkDima09Dx0whrm7+BBKyE0yc1rQ+i43ofHRBtW4tDHHaEMYwzrym7cXn1ar2AxKvKXLteWuLSODg1ZNsYgRfUc0TWz831xQcR4GYkZweBxmBBHEmRz0x/Bm0AY6garpBofHfpgdfO47HebdbNizn98cdil5adjdy+wE=);lineShape=1;" parent="1" vertex="1">
                    <mxGeometry x="26.97215578567399" y="23.754291696982676" width="0.15194095107178912" height="0.15240705508184244" as="geometry"/>
                </mxCell>
                <mxCell id="18" value="" style="shape=stencil(7VjLctswDPwaXTHgE+Q5Tf8jM3FqT1074zh9/H2pahiLgL2Z3HrITZYXFABiFwSncPeyfXjeTJ5fzqfj982v3eN5O4Uvk/e7w3Zz2p3b0xTup3D3dDxtvp2Or4fH5ffzw4ycn34cf84r/F7saqWaZivPf5Y3TBL+vfi64Pe7wxpfKJQB7/sC1/GJyogXch7gmWoc8C5QAR8omZwbDSoVEIFUinmMQKgwMHDk62AQpH/zqkF2OuYo5EEMyVEaDZKQxNsGkamMLmWhmm8bBKY8ZkmEQr1t4J3OUkkUgYGL5MaNqy0NwKVC4kd8Jg9iTsRq/QK3rdXlGHErdUERU8gaj+rIE1eNr6CyHUkx+ILwcSSmYyYGAbtOrPUHQMDc07fGgw1gSmb9IgjvTcACCoI1kRs+Q3/Y+JNAft6yt8IHwMqGNwXhAe1bvGZ9hvmJKt4COezJK38SBVigkTXewfWzWZ9BQQeTzwgJEIw/sevkDXxxBg/quQlQNf6AeGPXs3W8wJ9I2eCRYEUS0fgI6icaQUyUYLwparyAeo69B63w7+S/aDzsMRQtHq7PJj/oKOGv5Ac1mFb/Nj+QL1qvWv4xH836sKVSMHikJ75/fV2f0B+9XxHmMxg9wfwKlMXgIV/0/jZ/QP7jFb1iyK9s8umgP2L1E/JFDF8S9P9j+M8Dx+eB478+cARTcKVLxvW5h7IRUJR/541CuK4B1w1qF9jVUMKoZRRdQpJxyEU37TZYQdJX3WXa6BbQGNNqctyFmGFV56q3IWQ4HLbJTjWmNuBGYFDeJuzVCI1mvVK09LYhHWWpBn3WynCov5w0LrcMiJlVtHYxPGo1fBKF90AaG171jqYdYM8aUdgpPDpazsSqGo9vYTJrPCDOTHSv8Sg/TXgMHu1X1fvL+Jan6rMcQ6Wbhb8oPBp9Lp1uVQ9IidhoNfcM3/zAh67N3sW3h8sd3dNuv1+u+Nb/6zu99mq5Dwz3fwE=);lineShape=1;" parent="1" vertex="1">
                    <mxGeometry x="37.750285612649066" y="23.3716864163289" width="2.6197044963446854" height="5.996736181321637" as="geometry"/>
                </mxCell>
                <mxCell id="19" value="" style="shape=stencil(rVfbTuMwEP2avI5sj6/PwP4HEmUbUVpUyl7+fu2NHOpxclIk3lL3HNtz5uqB7973j2+7waj3y/n0svs9Pl32A98PxozH/e48XvLXwA8D3z2fzruf59PH8Wn6/fZYkOXr9fSr7PBn4iniVEhG/a0Lxv1f+DHBD+OxgafYwA05uw43pHwD92QAnEm7Bp4o8Drc1n8rXFuyYR3vKbb4bI5X6/hEThgbSQG8ZjKtmOyJwYV0JN8abD1ppKeT+rusqAGKuqrI7IF8AriSjcSty4KrTlwWVZNtbYiWPCCESKa9UuLqmGU3JIqqJcQq9CohSAKDqM6ExJJg8QmpOyGg0FCqhs4VIwGZlhiJDNZJBEdecSi+M8FKAkq4ImyShIRPEClXCFjY4L9K6FTauJLIubIFyLlC0J2sGhJcpxIqewsEHBvlSqYLP3wl7yVhI8BDd8JGCoUoCVtJ6roTQCkrftWdDRv50BntN07o/BBR/V7MUVTAF45IZLHnpBEJltcFmWalb3XEXN1udPWVDt/EKE1CxJ8jB5yd2xC3R0QPA9ZG2ayDr7VnrZWyaKWBIm7WQliXCajkzzk5jwOhpuHawKHEwBFqhV6ZaERzzyt4YhKFqUx0wOQ8fwk/54EFGGBkP9EaTidaxlGAuZDHuxbOteGtwFXrYE0eiKmqFJ9w1BYyXAs4gwzoKouut7sNrmBsdpdRtcndZqqCRSvDo4Cj/qdIs4BruLuWuytQGVQdmq7gUHcjH0R4d5bKaBDwX35ubcDzx+fL7nk8HKaH4fX/8iWYl6ZXJD/8Aw==);lineShape=1;" parent="1" vertex="1">
                    <mxGeometry x="41.69392851083607" y="23.232343319062196" width="14.736125476398184" height="3.5326322667935193" as="geometry"/>
                </mxCell>
                <mxCell id="20" value="" style="shape=stencil(lZbdUttADIWfxrdnpNX+XlN4D2YIjYc0YUKg5e3R1mOIlkSd3vnv88pHR8c7yc3L9v55MwV6OR0PT5vf88NpO8mPKYR5v90c55MeTXI7yc3j4bj5eTy87h+W8+f7/mQ/+nV462/4s3CNUEKnAr0vV2JCan+v3C3Abt6fAxmlGCAJWnWAhsoGyIKaXSCJAUoEeyUltGyAqis4QG2IFmiMFh1AVbIltYLE14FCyFYlJgLRdSITJNolGtiRKRGq7ZzqQE4jooBtI2oFO4BUkAVK84EMsrrmBhIHKGMjUkV1VIphXCGqW5zO6W1pFggITklaQK4G0CKzs0KuaMkCGSE53lARrZlU6OB8dG+TXUFbGfyBoGFG6V8zykPjCLFcB87c/OkNWoPh8hI6MBbQofJa3UdysGtbX3FZJh36YUg1GJySeqzYkr6i53KrBeXbjFYnBjQa6wBofHozmhCHoVZZHTN1QP4HkDima09Dx0whrm7+BBKyE0yc1rQ+i43ofHRBtW4tDHHaEMYwzrym7cXn1ar2AxKvKXLteWuLSODg1ZNsYgRfUc0TWz831xQcR4GYkZweBxmBBHEmRz0x/Bm0AY6garpBofHfpgdfO47HebdbNizn98cdil5adjdy+wE=);lineShape=1;" parent="1" vertex="1">
                    <mxGeometry x="40.963213305500275" y="21.944501584161678" width="0.15194095107178912" height="0.15240705508184244" as="geometry"/>
                </mxCell>
                <mxCell id="21" value="" style="shape=stencil(rVbLbhsxDPyavRIUqRfPafIfAWLXizp24Dht8vfldqF1qHhpBOhtHzMSORyRGvjudff4shkIX8+n46/Nn/HpvBv4x0A0Hnab03jWp4HvB77bHk+bn6fj2+Fpfn95nJDT0/Px97TC+8wrwHEiEX7MH5JApn9fHmb8fjx8wlcCyoZAgOjgM6DFIwRexwsCcoen6uAZSuniidHBZ6jV4DOwOHjp4wkBSlgnBMQmyMIoUL2QVHGxKUQIySHUJuFCEJDiEBJEmzTHtud1AvVZs+bg2eJLSLwId52gKXYhVSDPSAg5WIJm5RSiFChWVkYQR9aiViUrawJyVCoagPVekLbE2g7UWYOgejnUZoRGKG5ENUCwGzCgk7JWodj1EZJXtdq8f8F7p199lGyVAyQnXzWqWBtFEG/9CtHixbWpLL+XeFJTYI0gtj9O/c47aqqQzZiq3/BybyLmWx2PbM04g/xPgrqYrUpSXJVCbhEvBGkd5zqBm4hLHfCGk6CWfgdPpfwFr5Mur+Njr5FEF08Q7FjTwRUdibA/ODVBdfHdENH+5w0R7MesNqfi6IntXC14jdBZX6eqXT9rzR1b63yxemZy9fnuPeQ2Xh8ul57tuN/Pd6bP//tLkn6aL1h8/xc=);lineShape=1;" parent="1" vertex="1">
                    <mxGeometry x="38.55263214221135" y="30.902992926073836" width="0.3226800162951872" height="0.20284010721454437" as="geometry"/>
                </mxCell>
                <mxCell id="22" value="" style="shape=stencil(lZbdUttADIWfxrdnpNX+XlN4D2YIjYc0YUKg5e3R1mOIlkSd3vnv88pHR8c7yc3L9v55MwV6OR0PT5vf88NpO8mPKYR5v90c55MeTXI7yc3j4bj5eTy87h+W8+f7/mQ/+nV462/4s3CNUEKnAr0vV2JCan+v3C3Abt6fAxmlGCAJWnWAhsoGyIKaXSCJAUoEeyUltGyAqis4QG2IFmiMFh1AVbIltYLE14FCyFYlJgLRdSITJNolGtiRKRGq7ZzqQE4jooBtI2oFO4BUkAVK84EMsrrmBhIHKGMjUkV1VIphXCGqW5zO6W1pFggITklaQK4G0CKzs0KuaMkCGSE53lARrZlU6OB8dG+TXUFbGfyBoGFG6V8zykPjCLFcB87c/OkNWoPh8hI6MBbQofJa3UdysGtbX3FZJh36YUg1GJySeqzYkr6i53KrBeXbjFYnBjQa6wBofHozmhCHoVZZHTN1QP4HkDima09Dx0whrm7+BBKyE0yc1rQ+i43ofHRBtW4tDHHaEMYwzrym7cXn1ar2AxKvKXLteWuLSODg1ZNsYgRfUc0TWz831xQcR4GYkZweBxmBBHEmRz0x/Bm0AY6garpBofHfpgdfO47HebdbNizn98cdil5adjdy+wE=);lineShape=1;" parent="1" vertex="1">
                    <mxGeometry x="55.163094038010655" y="28.348369184709256" width="0.15194095107178912" height="0.15240705508184244" as="geometry"/>
                </mxCell>
                <mxCell id="23" value="" style="shape=stencil(lZbdUttADIWfxrdnpNX+XlN4D2YIjYc0YUKg5e3R1mOIlkSd3vnv88pHR8c7yc3L9v55MwV6OR0PT5vf88NpO8mPKYR5v90c55MeTXI7yc3j4bj5eTy87h+W8+f7/mQ/+nV462/4s3CNUEKnAr0vV2JCan+v3C3Abt6fAxmlGCAJWnWAhsoGyIKaXSCJAUoEeyUltGyAqis4QG2IFmiMFh1AVbIltYLE14FCyFYlJgLRdSITJNolGtiRKRGq7ZzqQE4jooBtI2oFO4BUkAVK84EMsrrmBhIHKGMjUkV1VIphXCGqW5zO6W1pFggITklaQK4G0CKzs0KuaMkCGSE53lARrZlU6OB8dG+TXUFbGfyBoGFG6V8zykPjCLFcB87c/OkNWoPh8hI6MBbQofJa3UdysGtbX3FZJh36YUg1GJySeqzYkr6i53KrBeXbjFYnBjQa6wBofHozmhCHoVZZHTN1QP4HkDima09Dx0whrm7+BBKyE0yc1rQ+i43ofHRBtW4tDHHaEMYwzrym7cXn1ar2AxKvKXLteWuLSODg1ZNsYgRfUc0TWz831xQcR4GYkZweBxmBBHEmRz0x/Bm0AY6garpBofHfpgdfO47HebdbNizn98cdil5adjdy+wE=);lineShape=1;" parent="1" vertex="1">
                    <mxGeometry x="23.83983156692399" y="29.879728347284782" width="0.15194095107178912" height="0.15240705508184244" as="geometry"/>
                </mxCell>
                <mxCell id="24" value="" style="shape=stencil(lZbdUttADIWfxrdnpNX+XlN4D2YIjYc0YUKg5e3R1mOIlkSd3vnv88pHR8c7yc3L9v55MwV6OR0PT5vf88NpO8mPKYR5v90c55MeTXI7yc3j4bj5eTy87h+W8+f7/mQ/+nV462/4s3CNUEKnAr0vV2JCan+v3C3Abt6fAxmlGCAJWnWAhsoGyIKaXSCJAUoEeyUltGyAqis4QG2IFmiMFh1AVbIltYLE14FCyFYlJgLRdSITJNolGtiRKRGq7ZzqQE4jooBtI2oFO4BUkAVK84EMsrrmBhIHKGMjUkV1VIphXCGqW5zO6W1pFggITklaQK4G0CKzs0KuaMkCGSE53lARrZlU6OB8dG+TXUFbGfyBoGFG6V8zykPjCLFcB87c/OkNWoPh8hI6MBbQofJa3UdysGtbX3FZJh36YUg1GJySeqzYkr6i53KrBeXbjFYnBjQa6wBofHozmhCHoVZZHTN1QP4HkDima09Dx0whrm7+BBKyE0yc1rQ+i43ofHRBtW4tDHHaEMYwzrym7cXn1ar2AxKvKXLteWuLSODg1ZNsYgRfUc0TWz831xQcR4GYkZweBxmBBHEmRz0x/Bm0AY6garpBofHfpgdfO47HebdbNizn98cdil5adjdy+wE=);lineShape=1;" parent="1" vertex="1">
                    <mxGeometry x="29.965270061188534" y="30.018943822407522" width="0.15194095107178912" height="0.15240705508184244" as="geometry"/>
                </mxCell>
                <mxCell id="25" value="" style="shape=stencil(lZbdUttADIWfxrdnpNX+XlN4D2YIjYc0YUKg5e3R1mOIlkSd3vnv88pHR8c7yc3L9v55MwV6OR0PT5vf88NpO8mPKYR5v90c55MeTXI7yc3j4bj5eTy87h+W8+f7/mQ/+nV462/4s3CNUEKnAr0vV2JCan+v3C3Abt6fAxmlGCAJWnWAhsoGyIKaXSCJAUoEeyUltGyAqis4QG2IFmiMFh1AVbIltYLE14FCyFYlJgLRdSITJNolGtiRKRGq7ZzqQE4jooBtI2oFO4BUkAVK84EMsrrmBhIHKGMjUkV1VIphXCGqW5zO6W1pFggITklaQK4G0CKzs0KuaMkCGSE53lARrZlU6OB8dG+TXUFbGfyBoGFG6V8zykPjCLFcB87c/OkNWoPh8hI6MBbQofJa3UdysGtbX3FZJh36YUg1GJySeqzYkr6i53KrBeXbjFYnBjQa6wBofHozmhCHoVZZHTN1QP4HkDima09Dx0whrm7+BBKyE0yc1rQ+i43ofHRBtW4tDHHaEMYwzrym7cXn1ar2AxKvKXLteWuLSODg1ZNsYgRfUc0TWz831xQcR4GYkZweBxmBBHEmRz0x/Bm0AY6garpBofHfpgdfO47HebdbNizn98cdil5adjdy+wE=);lineShape=1;" parent="1" vertex="1">
                    <mxGeometry x="12.981100109810129" y="30.088553403931314" width="0.15194095107178912" height="0.15240705508184244" as="geometry"/>
                </mxCell>
                <mxCell id="26" value="" style="shape=stencil(lZbdUttADIWfxrdnpNX+XlN4D2YIjYc0YUKg5e3R1mOIlkSd3vnv88pHR8c7yc3L9v55MwV6OR0PT5vf88NpO8mPKYR5v90c55MeTXI7yc3j4bj5eTy87h+W8+f7/mQ/+nV462/4s3CNUEKnAr0vV2JCan+v3C3Abt6fAxmlGCAJWnWAhsoGyIKaXSCJAUoEeyUltGyAqis4QG2IFmiMFh1AVbIltYLE14FCyFYlJgLRdSITJNolGtiRKRGq7ZzqQE4jooBtI2oFO4BUkAVK84EMsrrmBhIHKGMjUkV1VIphXCGqW5zO6W1pFggITklaQK4G0CKzs0KuaMkCGSE53lARrZlU6OB8dG+TXUFbGfyBoGFG6V8zykPjCLFcB87c/OkNWoPh8hI6MBbQofJa3UdysGtbX3FZJh36YUg1GJySeqzYkr6i53KrBeXbjFYnBjQa6wBofHozmhCHoVZZHTN1QP4HkDima09Dx0whrm7+BBKyE0yc1rQ+i43ofHRBtW4tDHHaEMYwzrym7cXn1ar2AxKvKXLteWuLSODg1ZNsYgRfUc0TWz831xQcR4GYkZweBxmBBHEmRz0x/Bm0AY6garpBofHfpgdfO47HebdbNizn98cdil5adjdy+wE=);lineShape=1;" parent="1" vertex="1">
                    <mxGeometry x="21.055538660131127" y="27.513080021897707" width="0.15194095107178912" height="0.15240705508184244" as="geometry"/>
                </mxCell>
                <mxCell id="27" value="" style="shape=stencil(lVbLcsIwDPyaXDW25OeZtv/BDKFkSgkD9PX3lZtJihwQcHMcrS3trjRuaHHcLPdtg+Z4OvRv7Ve3Om0aemoQu92mPXQnXjX03NBi3R/a10P/sVsN3/tliSyr9/6znPA94FyG5AsKzc+wY8CYv42XIX7b7c7ig4eURTxCwOvxyQDK8y3vKBdkCw7lBRayUwAJ0AkABQh0HWDNVOKI8AjRKlcE8FYAQhp3LledwJIAJASK1wHRQ5RFZISkVB0MhAqQIClVO1fzmrNaNCaIQQI8UFJ45d+SpRSAFKk9uCTiI4FTMjLjaZNsCYyS0CzesZP0fCprs+6KaKVgSaklCFmnVFbs1OYpmkkbce8o5xdTSMks2Buuk80ZwQbd1tJ0No42vLNxyIJXJLjQmy6Otrqz/QMBKSSVASNzimwjhaUywqpm5qGppFRmpJQ5RzWlMoQrXo0+hudj+xaCYn0HM+e9YlbWrhoYDlBrhzCeN/EUR/9eJra+gIVwSgk4du+kdISonD8f8wHMI/GOICsFz/IhVAnieqWPuD29Yos5oRbVgTSXzKsEzT3BvaFYorhOzpdHXVrH8+L/ZbLuttvhYXP+v37J8NbwCqLnXw==);lineShape=1;" parent="1" vertex="1">
                    <mxGeometry x="1.3803916940499832" y="24.056558117874218" width="0.09023905526937816" height="0.09063460509841402" as="geometry"/>
                </mxCell>
                <mxCell id="29" value="" style="shape=stencil(lZ3Z0ls3koSfRrcM7Mt1z8x7OMJyy9EeyyGrZ3n7AUZB8mfm4Yf2nRYkzwYUKquyCp/y3/788tMfnz+l8Of3b1//8fm/f/35+5dP+d8+pfTr718+f/v1+/rTp/zvn/Lffvn67fPfv3395+8///j7Hz/tkftP//n1v/Yv/M8PXG23mjYqhf/98S9z3tr8/3/5jx+A3379/RUwpwISAfott1fA4Cv0W8sKSAEBU66wfoIA6/cEsJ6qIqB2BeBDj9uQt1RvLQFgvcSkgEDPMG81vgLKrTQEjPAKyLdZ3gNauIWuALrCAuSqgAAPvQBNAOlW4bUugH7pdIv0DPGW5S3FWxsI6AZIMDXauoHxCgi3ERHQDJDpofMtvd7SmLdJz5BvfSqgEqDc8lAArbgFECMw1oSnK9RbbQrAL91uwa5AK24BWlRAoO/Qb/F18o1+6xkBMjUWoNBDj1vOCkgdAfpa+y3QFeb9jh+AZcjgw/WghmwBOizRHm/FABWeoSebS+1WYAH1fMtBAZkA5RanAhJ8uF7vE+EDgF7rAugCqrcJc6k3NcYLgK91Tb6mgErP0G8jKyDTFcat2DNEeoZ5i/Kly30TewcYTQG0sY9wf8QPAHroEc3yPSzVO8AMCiDrPdLFLQV6hnyfOQ9Axqmx/rsVBZCZWTcQgwIqPUNRF24BMmyKCyC76AJEsBp7qslDp9uAybcA4mvsF03PsFawXYFM5QKMqAAy98uSinOyJgst0QVQY7xsIQEebu0HQCTAvBV5BnYdlqOgS3QtKfhwCzCLAiJM7+Xs9NcPt1c5rLhp5r6zr/F0CT8A6EsvQJUrDHR/lh8cigLI59uOc1YA7UAL0O2WaPJtX/71w/UHyXkHkNm6dwz6cItevK7ptSd1vqVZFZDAaszHJvsAVDRkC1CLAmifXgDZUNZWj1fo6gksQIIVNx8O2wOQ0QjMrg7WAtCGsgBTvnS6dSBNm9tmBeBbGvYMkb/0UMKxAJFvaQgg8Jqet/A6lxozlPmgFx8AmZ5h3ne0B2Agn16AIrfUkeIvgHgCC0CEYwNeJ19jz3gHVuQZ6t2pewtoCiC2uwGvk28RtcLPIFNjcUc091cAnK1TKf7mv/ylhcctSn6YS0JpNuk/fLjXHaiFu7vydi51BaCZmbqh1Me3fzu9mwICA9Lra63LLDBA2G7td5Lzdk1nBRBpWlZDfO+6eByth3Hrr+uhVp4aQzeU+tiI3wHy65eu7KwvgPjeC4Ab+6Jlr1OjJuQPOzL5Or3rwRib31rDPXr5DiC+RnnMrrfb7utbKoOtRlPLVzoSvwWQQEhpSC0XIDQFoOUzxl7qfdG+AwhjL4WNQNV9egEiWb7FsgSQ7/7+O4C+1sTuT7k7bB8AOFuXcX+dSyXyXMp3xvMABJ4aSQlHnrxPJ71CXmaB9umoTmJea5CmRlRTmQ+TL+h3yPX+3t7xOAn254I+3wKI35oz7g/Dgjk5YSh+hzLloeOdYb/j0/N1Y8/hvgbfASTunQYuIA8ipH6Ka7RXY5wahrxG1phA4pDXDubIFTglMizYnxI/dLSHfjDstzGy1y+dAi6gzc9fv3ScmPzacb7XFRcHA4Y+Q+x3P/NdrFJ8vtjQ11jMc75+uFjvxvMdQPjDAlAEazHPKoDC4VOj+DEjB1oACTLHdLdU7+LeEsxZgMiR9SSAiHvconkSWY/h1gkQLgBkBJq5oRMDJ4u0adgbZ9KiYOIHPIJy1+ObBZfQBfU8VuPcXVGD0dCqLq4jv1/RYd1UR3gA0uJNXMRlwDm3c8Cyn6NLskhFl80W3/9O3ctufs/7XY9vytIzunmLIEhCIN05xPX4rO5IQld4Oe/CuBMn4dcClAXD0oag2YOI73854l1sNZKF8pju9/EBgx7F/OyAjsv2kaOMp61jebyyEwTMmJZHluDDeHo/Uc16QPtTgsaSw52ZXI7Pll8NuGss33Xq/dP6XePFETyM77peDuPbxf3z+GDvk8ZXVa0cxhcls4fx+WI8fa90D9l9GA/2P0f1hQJGUZJ5+uEekrgeb357QPuwtpOp65fCcWt7MPtDDu8yr0PHU6hsm8u/Yt/27b5+r4QCoGgiJrbPcej3TRj6Xo6qMOSM/kxsOt8yzofldYo9yUgHltMpkfWC9jw6w7/HLq/HZ91/yz0+dT3+wj+h7Ea0bF9F3rocVAnxNZ4PUeNvjedD0FxIQ3Y11R3o98TFm+Ga28TdaFj6Cp2ToWt3YMjXEksDTWFXHsn5kq4La+1kOFzIzmSRnG5DTFGbpmImssGmTs+aFolYgkby1nhkISpFW9OUIuFVZ9kaT7tEvZOyD0SQZkLVT7vG8+/r+2ErWO9xzQ/jKS5fNPC/zBYR2aL63jWeaGnR5Mgyu7Rrlfse+DGaQF6AxvDXNkBUPytJiJybz+oErPHEArNqVte2R8+b7XtNDAMndVJ3xAjWV9LYeuL0V1KnP3F+LZkTcPBKdD6v8fR9k673xOsl6fvcXgP+vkcR6X2aSC3xeonqtCWWRZiEeVsA8krUaUgc745qnrcFhu9lJHm7ubSra5xrb2b4vBJU2jsprK+oCbK9N8J8CLrz7t0O1ldQe7LGU/gzKKnOAb2eYLH9gPtj0N03R1SNBQ06LFpFwdWgmoA1nlI4QXUQmRNjno8puB6DBhEyr5egQYT8oFVvxmvQqh3uR2R+m5bjfMuW4eL7EW1MZjVa0GzsGk/2ysdP1HxcjacMnY0vARXjPp79savxxBJ8fEJ/8mo8qQx8PAt8fXw5vf+q49k+aJK33nfwd+tFxjdkyUFVSaVj1tnsZxkYFY7q75V5sP+yH+2wLEURVBNbA2YJkyYhasSijKTrtyZk7Rakrhn3ayf5BXVn5n/Wiv5bVn++toN/K/7nliJR1Fnn/66uQz4i+12d+P4forpHECFy1N/0Y+nAp8Tfayy3b+r/NFaatAtdIY038t4a3r8pkNZ4Dg6oRpDlQUOTEG2w0N6knRPtg8Vl2sT1MjXo2QP6n1P9sa2vJfsTNHu9ALRBxqCVBT1h5jeaS7yzzeRyR9Va9IxrbIcoJDbG5acLoFeoWB0Rs5r1Z1nWvxj87A2zTTu6Klfo/OGKMrFdlkW3VO8b4wMwUCMcmxUKTFTlL4CKuyc6HzskLpU2AaM7CyDijBExaROtWHqX5hCfnErQd3kRA/SWMlZ4PDU0D0C5Bx2uAeYjPOVL1wBTBh2KEn1XHhyMTqZuWgBK9nucbVco0UNXlS3vMmB66GZR44n55mQFG0+x3TVgqGx5Roy1Ja+jj+y8GNt6ShKvAVFzPpM1wjlbsJxn66KrUiw9Cxb0LT4pacwtPqUrdN1QJkuv81RTOblaaFE4cZqf1T3XAIu67WIdAjyaETwAA5NLiwVJXGCX0tAV6sUVyHFePEjlUBPzsaWpK7wrAegK3SbfxFhOMcXVs27lHUBSdpOjw8VqF541H9fucNBqoWehyztA9ysQIFpvDK6/WIRLG4JwhqpaFeN+raxE0r4SE0nz4mjauYJLpDap88lHb6naQw/ktbUq0Th1cqkqKt4rDubSrhgJCkBBWLP10NF1qE3J2GQV8uKmuqFwE4fqS7SdRHP6lhrGK6sJcheAVPmL/0odzGTGtwHTAHRL00xl4xzm1Fqe8y1VuyWyrdXK7TaAPpyVqh32uEsALtGpbugGUCbZatsmh9rq1Fj2BvBDF7ul01yyhz5cIfls5WcQOjA5v1StnGJyocAG2C2RfqFavepsyBTrVOHObMh261RXenJSofq2e1xxxVccr2ndRRsylDovLB8Vw12uh8hXuFii/FovAIdb8sl3sEs+vfmWtONaOzXu+ouAcWH5SEa4+6HJW+oYQVxb1rBtF99SN3PfuR/a1baLz2A1JHPwXLIqxgMdqKYbmlyqVuuFR0ZMsRoBn6yrWj6f8wc0xtbpa3J93vZbzTM+SO7du0ePzMpaFoDCy9X0B5OjDpf8gejxZijGgQhQfFOcKElxYf/hGTaPMzpAcb7NFIN9B2KK7WK2IvFrxtgn5qkXn872WmlTXIxdnRNecSVrqmiXgNMtJYvNsGizWAO1bSopNjM1UD4banhztytUTF+5aH9WzK9m63czCxqBnDQjOzPO1hzN18i47WZLiczESnNrObIAKNIy/eyMqDLYaTK5pYBZGteJTm62lKyaaUycGs9qrQ8RXQpIJeudtJsi0ltKmssanKvfYjbpMNWQ4rtaa1RUWz5LOD7E7lH0b21TRmYV/FACvguDKenijR0T6+a7SiBGZCF/1x3o0BosNl1xu9MXXaFqQ8E+cT1Em619YJo/Wry1H3R5WasfO5dvLoBwoN4wMBiT7nGdpcHRtBmdKzJj1ArLXk4lEjKXekZfIwaNYPWMMeNdJGEdpugteZXEoa3ERUMqbJ9mRbqBa+KtAVxAfcbQwurGaayu+vs2sGq1a3CsdVyb3bpjdSTeTUPFjQNXzXpjcZ+1qjthYz1Z1cz97vmE+pj0+n13j2TU94glalzFZu5L4/lQrJPRQNfZilYrJ1rN6axMt63rRGUHzxpGb9pHboI1k+KuFkn3mkXJ0Cgqd6lcJe16u4jzP6oftfgY649FlVEmMn/TBy9yxXpueZ+7zBrHiy9bWIcS9Hm3/pLHmx6Uvm/Q+XbUj+r4kz5Vx5/0rz6eyIGPP+l3fTzrg3X8SX8s44/6Zh+fYP0G5aRHfbbsp1v/ze9H9OIdsxDWtCBzz/CgcYHMcWPraptZaxN0f8lMCILmOXf9AOut5XtlzD+4/p77drm+/1RfIQRo02u+H6mXCLi/eD0DdzkIVq/FIcGgLe8SJ6ZNOvL0AP81+59O9Q8SKU6sNIm6XhI3EPN6pMYOukbf00HoqMHG7XGhPl6o4VaG4f5ebTzNz2j1ftz1JWprpadH9Ga81sux+tX8mV1Bh/WE2tSLBY5J/b1nhdWb8cKPtsVDf0zSN5G1JUkpZ+TibfM/IwdJvVEV67mz2sMdzcDx4o9Fzm9la83F9Yrm/0fuclA0FRuZwhfNR8SC4aOiMbaYcT5bu/7I/lVV+7PGU1y+6nyO8fD7Mp8jdzGqmuWNXD9T7fsGFOt6vT3zhab1HhPdyWZaGLTmJsjmbvUWZeZaVD/F4NAFQkIbA5nXsBAf97E07TnyHNOQdqRpU7N2jXurBBU5scwk2tkILFaIpvutmItai05oIHctiGbGC8rGoulfC+v4i7rxfDRKtDKq/BdrHTJXbTdz47lEpVtZPnaNiEPfP+u6ozXt5qquFKxtB7Ki3YZAzBR3OcgqxI04P5MdGcEZg12Er73BqDQlDZ1vgSsi7HiggFGHbGWcATUou9eX9nKj75XNLQloC696lZGXetULDcdf9Fo7jLdebjj+olccjrf1chxvve5w/NT5zFW3V736UN5vou/AXljSPDt7DSXrbhdQAlhMjx1YitB8/lMUqnQVRwSU3ZehblVgXU5QNyni+9m9MLW3Jao2LdXMUb1qbjwn/GtVAX1i2WnTqhsuQqt2NExmXbidqpL5eaeur0MVcNQwYOFDH5OddcBZqazzoaJXvouWJe3F5zFWH0+st1kD8o5Zo2a9AA/HPQ7dLwaynGb+w+SW1EHbQk3OIkZrIxVQQ/CsEf7A0/CcxGyNviMStV6sk1pi9lJ1ju4UPnWkruYEFZQ1dOsovAB4dKOdxBj5WKsF0HZn7dQ/XeM5zJO69R2Mh4L4YC3d5wmgfTq58emI+gyJBSwjWdAxocZsZOv6lNG/H8ZnUkFR2ijWl6kh4xh2plriRMmwyXdg81tcJQBuVTGG5XoOZwwOZSnLb6bg5rBKnt2diVh90AWUC66HLaMTAOc7Z1QBfOYCqeeh0A9A5yskTTlkPp54ZrV8efJbynqFwq2qZ1G6uxzcw3kz1QAke5vejDbxh/MjcDK6tLPaLRX04RdAatwLHyk7mwU16umwI03mc9nMAkhBSOE41GzWk59Po58W2Cjsacyu+0M5HKFpB3LUgIqifYrh64qrnELftRYSHDtoxoZKWWtCX2PaLrq7HjFA9rjKaeJdnCG6mYq6h2m9BirXnU0rE6isBJsmrassT59WjfQsFn0HkE4A++Q5mq1TN5R6OOFp6ppuAeVj0060WQA85m1ag6XIJ8+ZwrFxB9FnNccDwKYyBhN9HA5KvEYczmLUw0uOpz0qoHIEfmrmqXGmbVpjlsa+8cW37qclJFGMxmKXizMxuWj94iDQeVpC2iacI5FuN3pg98QVs3ya1xy65naHKfpw1rNnsUc8RHNodKVzUnJal6+ekaPsej9vScVHK0rF025Jddh4rYcVJc731i5vqfJO3ey1stRzWkedztWkuzbIAPgdqvUS6/yl7dy2zi0W9mHXpvtH96TY2dWHw30t7rCPBOdzDPUY53k6+FA0D/tYc3ropBylTxQN77ZEUkPC8eRpbYvH4SxG07EN7sM9pgoxTgfYj7sH9gFAxT/D2jmNyGckWN3woZfY8Hx6Qp41mobVxiFQ0TQOvbuVUVSgqv5tZNx2hwk4Bh9DMoqu6UM/tGELaLCvsf5b68JYQ7kfcSgg0WtN9pYKB1uiHYhR+DzJaJ3vmFwOEy4ObpzaLWQ/OIffpwa99ren0OCwYz24V/WOVmYF4EEgFpIafEp5b1oeMjjQv7ZAif8MbuKwo8bWW4+mRrdjcwbnErrlhgcXku3YelYASWW6xbAGF4l065I+DlVDxrN2dJETFlJ3MNgTaMNqDDunmLp694MPHW9dvcrBPd1aUzowBp/90lQMPrgj52I83W6Jwmqexxosd16sTftlchOHlq11JBcgLICmpgIqhluyZhqcXG4W7t/uCj20HZoxWdTe7JSKyV21m5n7mbCLYgvKdicf7rsA4rfusDAf16ndN/ikkGalQcv1PXTUEdI0ORh/0eSncsc1b7bEOjjPe58a5BgX3UfaH9rXNAWQMd4d16yR3aF9jX7pwQetWrL51B+waVjt1NTEz9Q6NDVp1vNzcl+6Zsc4B5b4bET8qwhtdXp8iovmL9y1x/ug0GkItWnMdU6MO9Rmve8OHW8uAfyWik0OnOBGajaA1lyzHlOTWzueAesPf/z0/cuPv/zy62+//fn929d/fP74/798/fb579++/vP3nx//9OeXn/74vP72fw==);lineShape=1;" parent="1" vertex="1">
                    <mxGeometry x="0.7187481684361643" y="12.948159996609583" width="21.7457690337912" height="22.552860773031988" as="geometry"/>
                </mxCell>
                <mxCell id="30" value="" style="shape=stencil(lZ3bsty2EUW/5ryycL88O85/uMpypIoiuWQlsf8+QCRyyN2cBc2bfbTBIcFGX3c33+JPf7z/5fd3b8H98fXL53+++++HX7++f4t/ewvhw6f37758+Dr+6y3+/BZ/+u3zl3f/+PL5359+/fb/v/8ykfO//vX5P/MKf35b5/Pmw1wV3F/f/7Il//8//P0b/uOHT2d82noRfOuIr/2CD1vMiC9V8N//8Ayf4wUfN1cQ//3nH/gcEO8V3+l+jn/e8WlLdP24NSf4xtcv1+fNvJ9xS0XwLSI+tAu+bNEh3nvBV9r/sPXrftYt0P6E/XIPfKX7CVu+Xr9tnuRziKMXfCX5D5tLF3zfAu2n36riG13fb/F6XrzbEr1grzc0/0JP7LZSdMH3e3y2IFxFemxCgncwnvAqQlNI4B33LRl8Q7yTLRpKAPb0eKMHPqNMtC0mxTeQ6aoi7csuhE/wWV7AOAN4fV8V3wFf9Mj4thW4n3HC5foddUrZ3NVkBLc5OAPZqPRDBJ/gZf+HjfmulJ7gncE3uP9hkuR+wn7onuBzUnwH+U+6n8NmRLj/tAWn+AYHMpnnTfuO3eLjfrcnPNmYuNWrPI8dJhVkTNKUEHi/cT+tJ3wF+Tl278DXXWM8wQe5n4Y2bHgM8r6GTof9DKrf4qEhn+BF/8Sh5EG/BZW3GNCHCMalGTsM+xNUn8S0v/EneDnvMe8a795g7NJ14IcGg/sxJjI29mm2Ivi+OzlP8OISJLdr4Cd4sUdp/CL5KFu6ylsK+4l4ghcTnyLq54G/6vOUUH96lYeUUR686ttU2OUw+Lp4X4pvW3gJ3zfPz3vF52GPXrn+wHfyyQze43mx+HGiySMz+LhL1I/JQ06or7zqz5z3E/1Mnp3i+XlF/vNKfjQkqeyxbqkrHmPCPaI78I19dNW3A1/5+nL/fQ8ifhhP/qTBF7fvwA/i/ULfWjz5M0Z/lmHRUH7Evpe4kP903f/C/rxX/6pkjEe8xi+lbAHvx8v+VIxf/K5tTnjaz6FtrvJZhn8O78tpiqB0zNEM7/p6Xqrbg/Qn+GzwFe8nX++nejzvTvVDDYv7kfdbA+YUnIbwNS72R+ShDo8a31dIiid5dntG48CPeBP0z8B7xZN+s/iC8ewdvrx0/xXt7x2e/BmLb5sH+3WHJ//K4jue3zt8YXm44tvwN/C8WPxL8tP8a/sz8Iv3ez2PLWB87XZv7YSn+NHt2vXAj/OIePFnWkJ/4EiInfCUE3QmJZgx3+J2bXzCN7x+kxRiwXh86P+oeMzJanza6sJ+yXkfeIqvjf/ZGuor478NPObQ1b4MfEd8FXle+VctK57ioxHPesV32M+g+9kdxjtHtH7C0/4HzY/1cd5B3oLKT/erfIhTPOWXTH6mB/Qn4y69J3zG/Jg3eMr3Jj3vnfPJSc/jwFP+JGs+ZOBJn2T1nzvXhLKWhHrCmofJxw48xYNl99ZOeLKP1chzQv1Wd2t4wtP5Hd5vMniQn6b+WM8YvzfV5xOP+fwWFM/1CNcMHu6n79m8Mx6etxv5yRi/d3O+MtfkjEMwF3BJqJkdjRQB+/2AnB+BQs5ws4D2dJaAzCaRk+6zeilTqsnKFK1kz2NDZqZpKXueS9LTbr/e+eDTgqCWuCe0xCFpKWwuIFOWzVlIW6RfqBrsjQVk7OfpMdtK2aPoNB063zSVA45s7Fla4ZZi2M3daUEhA5jUQ+ic8Y5Zq+C9YMopFnNEy05kuF9QNUkyFmARp2mVq3OVMTllOnROsyVb2m7ot6QjDDgtIFlKWSOVzp5jqqY637E0k9pumU4L6Jay37XQaQHtUjYEibGAyu0578mL8wJyR6rxHzvGlzP9GHRBglua+cFstpUqxHF3qE8L6EyXbNR9Q55EqUa3NixylL5L/2kBRRX1cNpPC8gtqcEo44pvukaj+Sra6WrIUWMBGcWajStWUDTqUak7LSBfph6l1ZOqrPQLfbc3pwVkRZu7ca+ofNG85gOnYYf30AwHqHNBpUWzIKK0tmR2Ke5Jj/sFWWlYnXMuM+VggirSfK1qVnZEhZT1atbtdvzQ3eRROsYB83pJF1BibTyiKOOZuSBPPe6JtFNqhPylKQiS6+Bc68M1PyWPMBgoml0ewoLRSTXpoLhbvWcLJD5szNmcilF+wWFCcepqIel1jLh7Nyn1I2h8tkBqdLWgNzNt5lVrDOVJNm4skCrL0OfEEpi/IGUEh/HDdBSkTtRWC6RwWwo6J914MyVhpmosEI+ssNYYsiSxaHGYixwLxP3JDUPLeR6kWr146Kx0h5ww3TbPtPxCwPzN1BpS4PboOgxNKmY3dcywzAThdZeGY0qeQOsaDgzXl3zvoRjFORnOdaOkTNEoK3GWfagtZT5HpEEOtSV5txQwz9W8eQbPxMlmmEUd3/RUKlclMMIoov7UqFyDeGTXnnqVQo7K7Og2rS5HzjoMV1q0RmTxflTzjwVczy1OE2ShY6plRCiSmwlcIZ+EFukayEjLzl7t9Mx6E6ezqfDNbA0IXzIsU1/xxQ3Z1E4JToMO2RRV6QM+Qyx7xHN4ZFhHGoIjHlxlfNhpUYeyx7z1EBvpxeA8cXS2F6NTLqpreuzQIPf4pkS+wLzIqsz4gHnlsR2yP1x3HXglcjMPNKt19hj4zMLHdT+ZxxGSxgzswMxCj16f6jyTuJsET7yMSZRtgsc6W1CijsO8uCV6OUxaW6LOgudriCWM910LKw7NmW9a+OP79yY2dyhvQ6FVfb/I6zRqnd+vL2r7HPICvElWO+bJZk3Qr/EqP5QnmHiVHywYZDWsjnm4Wb1AhznhOzzyBLNmtBatRdnKA/ayZXt+kZeXtVDruEyVNT+wvr6RN77/pvKz2J+u54vq8BP/4vs118+L82Lkn+WzGfnn+2nGXvD+NL3/1XnU9/XyeVzIpzmPi/Ni3tfi/g3+Rf2AfQw3z4s88Zv9XJ0XYy8W5/ElfLH6hGKlaV/0ebFmXO3+IK/8xj5i30Cz/gDy6G/sO2Xr7/yHBd7eD/lXN/4P4k2jEPf5zcYo87zkX0Ul/jnkOU7/U+0L9mmZRryFP5lu9C2830kEUn1IfQPBpHo970/RdB7H5cHIP/dBTiKN9trj/pikU8CkbTREzYhBfDSNXZxxilEb0wqel5g0vqtoL2JRIn1nfNei/uwWp+pz0FT+HJdANfqsNfqh88iEzU4rCYHZBmTTXPRoj3yWqtHuzIxeUK4adQbmGRSnYd5kUFGpN2gcED0ampKNoAZMIZemUzOGbBFFvprSVsxYXahRSbNDGlepS0n7caK9GlrckF966Gb6YpJH+9GixodD4LHxPit3KEWMWFsxefOEwteaJnjHkSKucDNkvVS4eGbedOIJFN0ogdS5LBTVTRiHllhiD/rosSBwOSIrA3iccjpxvegBygVb3icXSWow3BM6uReSi3RcV22q7AsLX+/q7ZTEpa2u6ddSUPhmiVEa3Rpq7961pLIoMXrntCJeOec5f+KqBSqfoN41iTA0D53RyS2SBQ3d5gdV6FjQMe6azB9pqHBIcB/Spx0YAScWdEOZbhH5feNA2J4W3CXD+mrM2Z28TcNMoOzbVBuG+4ALwl5RPBY0PtROy56Lxo3xz8pc54hw3IB4iN0zVbyaXgbufXhs4rEg8HAZU35edCc08+LGAjrUk21k+gFIWiefyTYQkN01HbWTO00LnDp9C/73ZH0Zki/Z3drMthZkudRquKIFCR+TG2eobhQuDcUozsaCUVujoVhxY+Tsi7WUQ+L3Oc2oLEiNkwXZdQH60lWHu0yyDxWHswbpU5+Te59uGLVkd4sprE5LTMVh20DRuZpclbnWuWN/cnaDLqARTZMVfH3ok+m+X+FuKLUUfU9qs9kmKgdO8rQhHlN+Oh1jtE4LyCdL9kA0viXbZ9KQN5mcYVtXrkE3w/KtmPSZRHynC8j7juWGUksM2REZSkAwNRktMDMHJ4mKEi0mUdcz8jGiaeHsPFImmp7eaSCoNt4Nc59Zvo8ZUCebhdVuU22atGBKrybTB5YwP28HMf1Ag1AwC6jC0+6egRaYFOLCss82KtOMR8Sy2ahlRINcAR/MiePxYt70A0/hW7SzGeHDoZHOHFGeeGOon9ObIWfdeKEZM4nWSmeOgJQj9ojg7/0308mWUbKbstxWnH0NNXrGjviqhdGeMRtgJij2jEygqpmrntGDLkbiEpIli6H3J5zoYgq1C81iiECTw0oOjLEgkX0FY2YjeueGODTbGXDiorp4TFmP5n44H2sjJJ5QGs15CRhGBnPeF0wvnVjVVxP/gsibYyac2c/VRDu195w8Mx2WbTG1Vp+3cUOZiTdbX0xs09RFY2aAxlGtLSak6USIilkCpzFO48YtE6a1ghPnnAZdMy0B8uPM/jO5205cydgF7EwXDPf0mopN4z5mp8TuFpFZ6PT8zok0uP/O5PvIG3VGHlYTdSyeJ/Zo39JqIpDF88QhzQKvJhpZPE9MUvxqIpPFL/ZHJlatJkpZPE+sUvxqIpbFk/50WpheTvTSjPdqYpgES3MiGV9f6ggRqehOy5s1Yi3Raemk8oRAO1GNC+V2wht/pcBpjF55Ao+daOfQPzSDHQpPzDatxGV1XiSAKRWTbk4TAANP+sFrZDsnIqL91dLYYj6IFn4LF5VMx+6cGInXl0C7BJ7abyZGriZeWjz7S4pfTewU/ExR8vO+OHFUW+I4z+a1xTqv/CWJT2fGlCeSmYmvNAHS+Htzoiz6t1Key5m/QqHxfuaRI4b5MBuU+Ly8ONFX8auJwYpfTSRW/GriscWzfy745cRmxa8mQgvtaTlxWvGricSKX03M1s5FnjDgDeskrvB2ojjYU69sisS9/HZC+IKJbvhRfSHP0mgWuSzltd4SOafuDXWJ89des6CRmYWmsWhO1Md4XBvTApYpguka5UbWoETEyHXyoI0PgQsz0XxRgvV/1MLPzMaDfEa1L6GgPxwN0TTjhMZoiKzsn0St5AauHZhhZIEHhCTzhZSI/nAy+xl5VpPhXAZkHif1V2fGCe9f8huLzsas9jQwI83wyxadhKZRxbO/ZKZrDTwNXitK1PcN/TdTKZ29wDhBMRk8+T9V83W+LPLtsv+eCx5mlIvPmI81jYd+MVdC88Oe88lmWMf8TBj5D6bM61mgvYnwvOcIw6T4PKdkvbHZnidjzBvQ7m3sjvKGWMHdLcHMuuEnNqyhxl/SC3r/dXV98yU3LCyaMbeFfSZDqeAcjbc0Wo4hjVHK/OW6qEo38WfWopLhEtdRow5l46+mzS8Zavc8xvBJg/LAMUPSsdBh9WVF4RQE7gZLmkT3/JUO083DXxHzSZmwnmOSpGxHz/Jw8+VMskkTL5+54y8ZZnU61njdzxVepxHg+8qG4sRfYTEzNNkn9lmLPJ6n4t7hF/dj8Nx9+9qXVJf48R+Pz7b+9uHjx29ffT3/u37mdfzp2ydi48//Aw==);lineShape=1;" parent="1" vertex="1">
                    <mxGeometry x="23.754468101713115" y="7.971179588386924" width="35.55675030670417" height="26.42830485411439" as="geometry"/>
                </mxCell>
                <mxCell id="32" value="Left subtree ka every element &amp;lt; Node &amp;lt; Right subtree ka&amp;nbsp; every element" style="text;html=1;align=center;verticalAlign=middle;resizable=0;points=[];autosize=1;strokeColor=none;fillColor=none;fontSize=3;" parent="1" vertex="1">
                    <mxGeometry x="18.859999999999996" y="-5.38" width="120" height="20" as="geometry"/>
                </mxCell>
                <mxCell id="34" value="" style="shape=stencil(lZzbshu3EUW/5ryiBnfg2XH+w1WWo1NRJJes3P4+jZwCydnNWSy/HVHTHAB92727wbf80x+ff/n901s6/vjx/dvfP/37/dcfn9/yX95Sev/6+dP39x/211v++S3/9Nu375/+9v3bP7/++vHv339ZT66//vHtX+sb/vMh13qYZUml478fn5QZ2vH/T/76IfDl/eujQAlzqkDuIJDD0VQgFhA4wjzOAiP0fC1Qx17Ag8AxQaCGLEvqIVUQiKHls0AL659XAvZ9hwjYuUUQiGGIHnLIoIfcQhQ9xFBgD/kIsZ4E8gwFjjWVcKSzgJ0SaDoOXVKuIcIpxRRGPAuYsYBpjJDOp2qbmrCiEvr5UO0bZoMth3S2i9TRkI5tl7fnzbLgSA91hZRDhf3a82dPSGYmg54vZ43ZJwnWE7fV7+dNhRUUltRvYtsn/NzmQj0bRKx7Rxf6GmdHjhktznxA1hNDBR/ooZy/f4YJj48wzssfocDq46HH08Kk0zdlnp+voZJ/5VDE5UOG5dthq8dv+37+fNMYZPoG7ZqxtHE+fkwdZowjyfMHWVsO8ayuY9vT8+dr6EmeT/T82MZyfz5CjM5mXIc8T9Eql1CaPk/fb+ZZ9HnylmOr5+F50K9llEPXnygnVb9+yjCW9CQcWnyE819IQ8LPqyys4WojhefPp9DUngfoq+YdXO/+RfoyGHGc05dFf7Dn2jShWvQEf7fn53k9BnRoPV3T6cTsaLhJw7M5MBhQnWpwkUGKQblD3mAwCI7IBCQEWVCqEEObgR6JQYb9IEW2FA7JMRNzcPNWFDe4uwK86awGszvKqibQz0syw0OEXDbKeMAdg95QtiM+ABs81qqKM1uK4Mut6pIsWlLwMoEiAgmx2XrD+ZQyQ+p2A583gcYCJTTBr4YA6JSKw+DH/oorTVdB+Yn1kDSlWR2RybzjXvFDpYLWGl2l0jHLNldHrHqOwt5U1F4tj8MeLC4JjLVITom23oz5JpDxWC2yNnlD4VBZ1TTsKwotyTxOsF1HMLiSj+xhbjh5ld2kTF7Bk96QdmC8CaRX+TaKQOb8cGzbvAlYHCHEMFUPjY/VBATCtL4P+rmAs6U2GSR1zUD92DDoSqCcl9Qjw56usKEb0CWc1xQn9YJlpglkWVLFHLdixDm29raz3hU0lNKod+RoTKDLpsdGK1cC9exAfSJaWmj1vOlx7OB5JZDOmh4Ro7cJiD8Mwwa8JAmVI+9juBQ4B4FR0KeXgGy6Yag0AdH06FgkrTfIKQ2s8orL02Pusv7SNKQqj/sYrqw1iQAXqiYg1jrzLuWuXFTC/SyhkuKGgsRpx8C1Tz8rbjYOxocmFBMg8sKi95RqoOOma1ZbMgFCZJbjpH6eA8uB6hU3kPFYzO5QAURkhzvWgYndMpqUNEuA3tCUlDAB4sBWvnECxLv2tFmIBwGC0t1R8qY4SlkWq1VxVokSb2YeLMda8VgtkmopeouFzwUcVWgeR2TVqE4PGZOiBUZJKC+ixujO4yIvaeza9iZwYC1q/y31g30F8bvTVbuDwbptUQq/0bCOs0NUzqGgaUyfH5iznY60XcZCb3B4yRI71dMm0Bx0SHSsQ9OugRPKosuDBc20zeVeCWTBS5b1eEnSijAvJzSzYvVZcYYqG73BBQELPO2FHuSUmO81TSsyPjDcmy2187Fa8GyQdi1GiKbbQERm5t1c/UBA1xxIOFlLAHisFiPkDRUx30JHsoeCNKXFiHxWXLs57VXkk9LSBIjoHo7MeVEpmstL0bR4OcoPSU1jFa+cUCQImACRoZbjxOPqQOrRBCQIVK5Q+g1/PQiQA91jxINAAcUtgaECBNZtD1IemwBxMyYgXGXtaEsmIBlosc4sINChdjTvPpS2WwKEZlwwrrehhisBAet2SsQJrFLVHSv1VZeAM41CtvTsDZTY+1BOwAQQwnlSjbHGEz1w8/yJpsdLW/IuSorz1joQOjz1BwrGTz2OmJOnPk1N2adRI0LkexqXqG26Ip9zUeK9u6t2l8exLWnj66VAdj6NS/qzApZQ9JR4umUVHC6hEFFuSVGGNxrzS6vgEDY0Iis9xhOClkiEMR1eypinFzg5H+tqYZDAjeB6ZHRf1A8CThrXQNXhpY5s6OJJ5JQG0kWGW4UNNVQZGaxHRwEn0PRiAATdR6xF59xp/AF7F3rDdPQpTw6ZgMz1Wf1AyDgebtjISpRBipha7q7YRrYxHaXLadQElCmf6EGrapLqlUcQpiPvVyAhh2iO3cxcgVd1uRVIyCHc2N2dubis8YU07qyHqHMdFkhocGEeugf7hKhE+z7Zg72T2gOLaxGCKXE94MYfV+ShBFEUbNhBE6w0Q1BGqqItjUPHg8xYGqNEaQ+84u1cz3wZPEGB5AbeBvp0mzrCtkIV8afOH0yANm0ZSnCoCRAOtSwrUeMhVF2xxhI27qHquUDVOdG1CRogzupyk4egFxnvqHIy13ooUbEoJO6MZkf3YwvPTevOhoVZ6Y6Xrnisq6voXA6HoKuSXubU2Eot7pQSxkoT0CVFpBFK1g61xTYKriUrdzKYFTABJYFfdOSyI1B5xGMJCEVbcFxoCbi+JXZG/R7SPrcrAQFAI7LisgbXcXAb0rmoYQf0h7yr2wd00ukNbvpnFVK06bLHJx8AExHZxQ2R9IphZjVrHWscIbiuLruwxgm7isunBZJFPtameXeBaVpS136Z4XtK1L5Z2zpOgRd3X8SyGA7CTvWHRdGygNjSSnsc7pVATTx7GnX2ur0YqkpaK1qBTCRwdbNqVoIT812Lgo3KvabqJjYq9ziqm2upPH9qK5aJjRpRcR46rJkmWtLQLnu53Rp4LjC1VjT7xftTh+LQNXxDY4xR9XCPVM8FkrblC/MOJqCb5sbO3fq3QOYrXc1Nw2VusJlDStTIBfWwiA8/f0o4tOyW4E0gImu89iC3d15gaUdJJYZw/mpdqjxDmzQYp4JYw2xpyqRxwiBgAlJApMjGd6g/xIkUbXNN8ziwLW8eJ43OdWuJfVoUt27SvIga51OKPF9kcUmA7v0u0FXkK1oEbd7sKrZKuOepLYu8gnOZhatuXqPiFEx1fVQeqKrRzZPj3RML0zLMlxiWOIaCR4xXkNa7J5Rui6N9Il8YTXr17UBPXnd/9C4PQfp1t0jvOtE0ZXZ0CRNpOWqVzsPIZo7urhbVksndnYnY2DRzkRu7EQFYino+DBTWpREJ7ohEYt/jHvfn8W5g05oto75i2ZXE3b+I6IlJESpnDotPCuOxbo6HZktuT7qW7Ipv1BVz7shDRE0z5YrQ5F9PUgCtx990ZS48qfnEgTkpKj9q/kIdhqjhYdkz2Y+7UZQRAka9fJAq32106+EB86p9p8RDk9OBswPvyURX3WTuwJh+ZMf3EPlcw0VbNpnpYFux3oYfHKNd79myAg2VWZKR4Y3ygqbp6pZWSiDsSJqG11g+14D6cxKNodPQwFWYLlvlUFIBLCVcsWIlHeJ2dy+g8NBAc/OGL37hog11nyVAexiuBuRhpjaUSS08HtKGmnfh8ZA2dMy/8E2c5rqqi4chPTx7AypuaFR99Vsm/pQmdmyWHtyPn+CFP6/pyaW1G9N59QMuf/oXX14L2B/3H5j57f3Ll4/fp3n8f/1BGvvo48ds8s//Aw==);lineShape=1;fontSize=3;" parent="1" vertex="1">
                    <mxGeometry x="24.88149014390978" y="39.74841114872072" width="4.190587379834162" height="7.314356273304641" as="geometry"/>
                </mxCell>
                <mxCell id="35" value="" style="shape=stencil(lVjbUlsxDPyavGpkyddnSv+DGULJlBIG6O3vq9OMz4nlZFveQljFsi6rlXd68/Z497LfCb+9vx6/7n8e7t8fd/ppJ3J4fty/Ht7t005vd3rzcHzdf3k9fn++P/39crcgl0/fjj+WX/h1smuNalushH+fvmFq/PeLzyf80+H5HF9J8oBXCgLwmXjEJ2oF4COxDPhKGgA+EMcBHwIpOKAWkjoaJOIEDISKjgaNIghRKZTGK0iEMSqB6uiSNGJw6Zx6jtYkWNj0ukGyLLus1X7mZQPzeDwhKkVgEJvPWyw9bpcNIqUxrClQQicw5TFK5mSL1w20UBxdSpUYJM6CmMYoZaYKSkOFpIwGSpqBAffaXA0SZXCCVX8Jo4GFFZS3FAppNLDcg1qyfiwjAVg5FhBWK+bkDOzSDRgopdGlEiHHiFAao1QyReRS6FFfDSoFUEvWwW2spcqdpy4bGAs5A8EnZE8CNVIEeQiRZCSymqmCSxvPOeaurRf8ZaqkOEbVuLMhWuqkteLNRYCPlMdSNe5PoFSZypi0bRZdwWf1eDRKuBPWytvMsP+tOecDQI6ZQpvw8Pd5whd4YUephs+gItbbneERZ3OfGWd4BZRt9w0eH6D/MvnP0B+dCoJBwbFvsYbHphXQ/PuAfNkz43JfGP864QWQCvfxdZ4v6P+MRxPzkj9oJBt+qp8K/XcDeal/GE838f+jIecDcMHNDYwLeiqgCvE8JSDjBp4CmnADT/4obuApPoLvO+EDLLiP4bVnZ8UnGM/sGbqZyATxrF3JnE0wQTPV/j0moFbYAUG98rAhjFredgfnUlUqoAdC8VOshi6PrkkVx6LFWAJJRp7UU4Fz2NSTG8Qlwb43fVbcCZEUCTrtSmY1sJ8AhW2i1HWaidKALp07c57JXjSbTN04BWjCOoDSMPnkpodJd7hNBK+Ts1AGeVBrH3cHhi5p9gMqFThw4kQYy54HXLKlr7kljeE2ESvF0SBmOBOS+qEQBXKqrbJuf7dVloGBpUnHsFqgBbhkpeZOMOJBtGrbiVvHBa+Btjs4JWj7BVoDjYUcawTccW3SUoGhdjTmFbfVdTl/GZ98kBJ2qPQNbo0RRRCiTZpt71ICtOAmzTY8fJdqvQY2PNKCyyQuHo/iY5OePR7Fx+hFPB77X/x9kbZelM0UHxz/5v1B1NKmjZrho8CZ9NsMEr5w8w+VqGUWfHZ4NHI+/BD6T7x92F5dHw5PT6dH2/P/+1da++r0wqu3fwA=);lineShape=1;fontSize=3;" parent="1" vertex="1">
                    <mxGeometry x="20.0983560755854" y="47.508540099275706" width="5.786459015979326" height="5.487006617983318" as="geometry"/>
                </mxCell>
                <mxCell id="36" value="" style="shape=stencil(7VrLbhw3EPyavRJsvnl2nP8wYDlaRJEMWXn9fZpZcDKsnqmNgFwC+LbSVs+w39W9vMQP3x4/fX24BP/t7fXl54ffr5/fHi/xh0sI1+fHh9frm366xI+X+OHLy+vDT68vvz5/vv399dNAjk+/vPw2nvDHTS6Ky31IBf/n7T/eef/3P3684Z+uz3t8dcHgwzk+BdcF8Yngq/Pm+fkcn4MLHvGF4Kur5jwEX6KL5jyV4Jvr4R34mpzU9+D1+QXx7RzfopMIeGH44iLaM0eCby6v+sp8wDG+u7aeJ7hC9FV8bws+ucLPA/hK/dtMPPdp4GN8cn21j8QZUccC4trqMGkukIxRD8e0Wii6QI6kIVTWkA6N+qx6V1YbxTi1Og7q4nJeBboTokMJLq5eTvoG4ubcZlRuAmolJpBcXv2QhSqtX6fVDzm6xiqRqriaNeeZq2elC5RWgcreUFxPKJBJcqpAzShQSPAl47ghQDytArGYI5H6qwLSUSCRaFUBb44UieNSdt0IsBKmAs0cifW0IbDWYI2ududIggKFWUkFOgok7mkMvjTLwplAKCgQmA7FpYwCwnRozkN4B5fJkbKfz9ulaGS9WVsBWMlzAY3N1XGatCz4ckd2oVpV3v69qUuROK5oP8lGgJX7rWztj0RyumbsoEPpfi7QPFIYNWsnnh49bu3p6hnWH9pRqWTVu4dZGDcBtRI5UteytYZ3EddJePfq2qpDyVygYyGrnAmL377fJBLlYvoK4A7a64Wfya9at0DZtmoNCdG0BbE35Bmcm0CnWqvnwEx9IzhnhCyuCdG1MDHCFCch3AS0tpE6UytSYjVDZxkkmKPD0MRKWgUgmFSA5eho/OsbdtFyRh6Qh/aZhceDmFaJhgKspUQ/v94E9BGkbigzh0Iz7EoExDQtFWDDnnikJ50nacGOorHEGFbAhOvRZeI3P5vBhg+02ntkrTpOMIqolbginuWzR2av4xmzj0ciM/BEX5ksfo8n5xdkuENfViNnY9rhA7GnTPq7w2f6/Gyez8qdTO/v8GzaE2TDWs0YR1J7JsQzfT3GZ+NtUOPBPJ+xQk1583w2Snpcpgx9ab5gf+KV13RMxRdqHx8Qn6h9xMQnax0elx2Nbws8crWRL/Q8UKPv5qNPBs8K6GRZ+/PT+ATOP+xDz5ONfxOpV0f5WGh+5YT4xjqMS5C/bRL6/wgPyywlN4Hg47TGvl8QfEF9Rz9i9dbPFcW/bHjagiO04Ey3HKNFAisoM2jPaESBnlrp0kKJCizAOl/tjD2KR4FKusDYaXQjwIa0eCDA+owyRm+YDTOrclJkNtvu5oz1wmSqjhPyhpFZhtsExtxllsJdcFOqn5Dq3+lO3QSfTh+RlBc1IoyBTajjhptWs44JiunQcJjQGY1l9KC4MKPxHYQqDX4oxSU2+yac0Uqgy6MxYMF03WlXa9uKYhMo1A868OPmMlFeWvukobsNAZtka8ZOkrU3sjcILi3S9kvA6eKloUAhb9AiAPkwBEhoqNWh2o8NF6tLdomn9ZwJRJwPslA+q1/7in5gg+lYapstOBsCtRjjLihRs35fak+B70vt/8VSGyakIUDCWzMYKO6d3ajmF0arp2bNFVNUc5AFXzHrrBQpqy8azGv1Vo5GaWtHXhz5G6ohxuEuX4JNhBJTxoybWY1I5T9UR9wtSKQ9rpmM67yJVtS5TKuddWnsP1zjigkdKM/Q0RFMKnR0sAxUZm4cu8zcROC//NubDhxvb1IItb+9qcHx9ibIHby5aSL0hx17k0V4SzA3ZYQWR3sTh/+6Zm/6CN1tRsHSePf5ISKe3SQS/GlNaE3RwdPEG/u1RfFtfb6nu9OBx5syleTXEZ7RlqPzJOZfo69/pz093UVbf/GbRDYe+M2vd98su4vXD/9cY/tyfXq63YLbf4/X3vRftytz8eNf);lineShape=1;fontSize=3;" parent="1" vertex="1">
                    <mxGeometry x="16.250197857720842" y="55.209372273784425" width="4.042792940120557" height="4.4624303911488195" as="geometry"/>
                </mxCell>
                <mxCell id="37" value="" style="shape=stencil(lVnbUhsxDP2avGrku/VM6X8wQyiZUsIE6OXvq23Gm1jePdu8BePji3SOLGl34e79+eFtv/P8/nE6ft//Ojx+PO/Cl533h9fn/enwob924X4X7p6Op/230/Hz9fH899vDNHP69eP4c1rh9xnHVOIE8vynDbjyb+DrefrL4fVquqPE3XRHntenewqhm+4pgumBOHXTA01/rU+X2k2PFMDqiVx/mETZrU/PFKWbXuBhKvl+dYGWcUyhP7xzzRXLAG9v6yLVAACZXH8BV6H1nZD0XFB3JQHejfbOk40qAFQS1ztYGYI8HOyRQqGcAEAafWdOKKnAkWKk1O8Q1UrAD1Go5p5GoYlimXaRxPBOuQLukKRdsQGypwx2yGql3tM5UwJmzZW4l3FhYiD74ij7HhAgvUu0ViqJKuBSUb/2Viq16XVZb3ri3nHTSAYAb6lRVXFI0WrW/g464gA1aqLYS7RGqLiaqZgjJei4WqyAdIkEglitNmroEhGQT9SIvad1iQDMqgBrJY18gEuiVu+PpEs4YCXxlhoKqEDTEqwfdM+MjhRbFJoBHltpeEt0T4cBRg8KqAigfu2DgB4yA2pIGR6gRAFdWrlkdshtiWVAbVFoBhRioGmRJvkZIDDM6L+lWIBHjyKzjWSKiMhMS1ugNGDxEgVfogw7COK32OA6ARC/pZFzftkvdlhD+OESglQtLdJdASoGcBjMhBxRFxyRkCKqDTQKgJFJj+QswGG7uoFMjBQhg+bmDGcNEMQCYBhQm+QbAcXfeCQbmaQ9AasKSreYdVmkG56Tga6QG2JzrC326a0HzW3wO4+qxoDUs+8/RBoGzW3EATeqGu/AwyU2YtmNgDI87gXztdisbHpUkOby8LjPhc7q02vYl2BWNj3uxqxxK31IQzYgCBCoOAvwiK6++fU6QcEAHlMgFAa0kDdHYio474sm/xYYaOoQynQE6UETT2NWHUHpw5TamnS64BoiW8XpyEaGz+YOCbJVKwZTXupIAZqeahKzg4exsojNjrUOyrjS8n3o00oLaVpruWhKM1xearVoBKTVYgWAXCw1tB7NwEp5MGvGnk5zN2YG4AJWq3bDpYQf3igtqMyACMuaGG1sjTjbCLXZ5Kq3kQE1QrAS1SVQmPGV4tCfQVW7Dzbb8DjcO7Fc8rhwcsm+u67C2Or8kByn1mpbDmRUeyPpCqiNWJq6Lo2+AkyUbGZSoBSiLfsy7BUF20WMLTlb6cda/8JC2lnCeWh6bv3IS3O4AkNyKx4vrecCzj70exiSn23yzzCDHFJUhl3AoUvCrdO9Nj2b6ajSZnJ2dfQqsY1tuJnHthZkmO+zLVlwFsu2bT47YmV6qnY6vKqJBgw7EDd+3dicrj8uH1KeDi8v5+8w1/+3H1506PzRJtz/BQ==);lineShape=1;fontSize=3;" parent="1" vertex="1">
                    <mxGeometry x="31.081148573000846" y="46.69327756849998" width="7.701173320615676" height="6.937128598855176" as="geometry"/>
                </mxCell>
                <mxCell id="38" value="" style="shape=stencil(nVfLctswDPwaXTEE3zyn6X9kJk7tqWtnHKdt/j5QNbRF0F4pvck0llwACwIc3MPb9ul1M1jzdj4df27+7J7P28F9G6zdHbab0+4sX4N7HNzDy/G0+XE6vh+ep9+vT6Pl+PXr+Hvc4e+E856KH1HWfEwrhnL4t/B9st/vDq39+N/MPlAswN5RMo09W7IJAlx7ACfyFgJM64H1ZBDAUm4Bjik5CFA+eEMGBclSKC0gU8SUgopqIs4Q4GMDiKEm5i6gPSHJmdgH1/qQCjHKtAihpZQ9pXgfEAw5bgGlnnkbkCm1lIpkhu8DSqDcnlAkDx4AChmnARlQYiNKaLUhezDwemTAGuARp1DVPANEoA2JolKfADIouWypdD4UcEKSVIe2Rq9xuImI+QanAmouil6TBiTASQqmdGEKSH6BvNMAB3wQgA0agC4aoeRVXEXBoOYi6xISQEBRShSyBjiQ6uQpeA2wSEx8o4QsqIh8qbA5JQAovkZ97jSuINsBMkjcKDVFSRIHojQKoZcGSFyJtYTnNYooMYVO3hlcZVnE11EqgFLKZFppLNVoMvWWmB8BEhElc7FzAlxlodxwAt3HXwZw0eOJtIgMfGCjEyHXpwdxDXW7WZdD4rt02ZVttJsEFvq03JNtmhcGgW4OWJg0bBX+ylFGpru2EhZmJUvcFvPCMMa6Vy1Me1zZrhwnWfNfmFcNJRVPOA934wIet41utJeFe+JJyhxrudsd9YJSh62rOYPdWXqN9hUpQWo3RW2PKitU4a6zd0Zf0piPC1oK2F9XamNcF85xwv5Ktsanl94fieE/nnYL9vJxfUe+7Pb76Rk6/1+/O2VperO6x08=);lineShape=1;fontSize=3;" parent="1" vertex="1">
                    <mxGeometry x="38.09467499364699" y="55.71046614876013" width="0.13690734425095927" height="3.5727780043468913" as="geometry"/>
                </mxCell>
                <mxCell id="39" value="" style="shape=stencil(lVrZchw3DPyafUURvPnsOP/hKsvRVhTJJSvX3wfMFmeHzZne8pu9AoYX0Gg0eQmffjx/+f508e7Hx/vb709/X79+PF/CLxfvr6/PT+/XD/vXJXy+hE/f3t6ffnt/+/P16+3/3790y/6vP97+6l/45+bnnZTUvbz79/ZLFtf+/+HXm/3L9XVnr1W8TvZVlNlniW6yVyfBEYck6mcHL06JQ5BUZ4coLhIHLxpnhyyhEAcnFUao0siim6R5j/w25KF9lQD2iU4oj9E3+ybOn9snqWGyD14amU8cf93sbcTK7DVP9lHFkzMOEuf5xDR27NDeS5lDIjYpZP5e4myfgpRM7efzTUUq/X6bYzqrJBIPQXKZ7ZM4Mp8oBezr2LGTePDzeotKJvFgq5vjrURJxL5Jns+3FIksJbfhN4cmjecwjFC9eBJxhhJlDqEaJTNYWdZcs2Q2pYaHXC1NyZT8BlPDoTlxJIt72oCD8rDOojNWtyCOTaliYLQoIZFAdaJzJrQknqwhRIkzFLUsiYR2qIilrdB6EAMmgzlEBl555O7egawhOaw45pDIlNJScfoIDH+LaEAHJQeXHYa3bWshB5fjKBg7B2WQYWV7Dm876UgWbZBSwcFAg4xgmFIgvIMEgpIdVGBblZbZDiozaljGsbppoBKXnGZrMFCpc8Z11CDnUMsoxDtcKgRmakMy0idJHGxPHIBxG9B27OAH9O7Qm7ERO1c4BztKBgIWOWVegwWLMgfbxHmEXMZRHjuUUQ02h22SZw5pnpKlVCYn3TN43tZkOPJgSnOKGiwoSSBbNLAqYzGBjZCRxhhNqmzRCWtc9ANHzk66zagRGoUZy2BkkpkfnB/EYnPYKsaxgxtMc8dVHUvRhuTT6ArNuCVFPS8oPYPnRRuhVrLozl1ghI0xngEZFJTelpERSkZGbB1JJhlX1iYpU65RHOaDbsFyXFAKNoYaOGkNiK1GG1lXYhmcZq5hjRkt7DYlqA80lCyBESnHNp8RB2CtlrEke2KRPCNAor1zjNhHxsFUju0VASOMMznjYkDePC1utn0hgb1j9hUpg+eEuOJ58frfjwcCglbCe57f7RPj2xY/EKED80/t5+87qXz+UcE+sf0pWGedePb9TZq527MKZfaAKtbAMPuGVdlRpcbsIR4c5ajWjSz7Gch5mX1Ce1bzzR76ckeLWbcH1KX7b/aofdEe1ewdfr/yfExQmKgMZOcLtdU/ah/j8n0e/y3g/Nn3F5KmAyDP7APuZ3iQjzgfGs9lfG4XPzwfM+YvVQjq2L5d/HP8XOL5wfn+lL2RvYT4UFgrvuheSiu8deLQWHteH9v4871+sXqUPJ6XURRWrxOS0U04O7avSI8Lzd+8zKdRLT0nrO/qqI5oTXsDgPAUQYsfALUjZYW11GmhfYlLiRXvD7TQJK6KsoBuZeGMfsdFTWdpfEDwowSyBmshwpw3nnf51oMj8DZ65dCVD+hqlLdBEalo4JcaXe6ZDy5wfbMtYNfhgPWvdWj6u+6SSX3mUOdzsP6VdpcLvzREYAW2LcK0UXjGSNsi6qZMlX51GwXaCwl8TgWagsiVhza0ks2hUlhqC00uSlUsO2q36P2svexSIChAZaiwZ/ENzLQ6HkzGDOZF10BlYMtRFPwTJft1Ifv2S2XiYMKT7mM+UBMB7pU6lCVcbd8Y4bc2P4Hgnzjeh1FwdjIwK7m5IUXqQhjr2hOicQ9H1rUrFt1W6WWide0ZptTo7WAK2AaaA0vq5Bbtu9FG04hMAfXE8dYoBqSGfQh2hepQu7tj1TF5W8h2Rx7mkEYR3Dl4MqXgl5sXLjIFh3XUgomtwRdEgS6SMkacxhJ3CcH4zJ1Bbg6RXnN0SQCm5ClsGHvBHFUqrxs/AvJQuQ5sDCwBMG1i9bFDGLLYDitZo6S6YKWnYl9D5KuOKikF7csWvccZio1M4eLjKtxxirg8ELCSyzRjRRptMOhJnDok9oaCjDRsF8UbLSn08mEhJR0DyXodNs6x0UbD4QMTY240RDEto1K26rHLCBvCnpwvQJdhU6YPUiCeu7TFbnRRCLJfmNKx1IO+A+ySAgmY1gcPLkC46+8diL0uSpZy6Vc9SneGAexOo/eNcDnLMWh5c1So1mEbAtw/8UdcFbWLSLUms69ozyiwLsQo0gzWRUuJtFb25yUR58MQy40r2J0905rc6M122gjTZh2SqMS1ejcK9d2e3RF36Q2uS+kFbrf3YP9gfxp+n1KPn3z3+Nje/nF/ZPnt+vJye6O5/zs+yrSfbg86w+f/AA==);lineShape=1;fontSize=3;" parent="1" vertex="1">
                    <mxGeometry x="40.05946146641142" y="55.406404631096166" width="2.276709831125644" height="3.7622537352808654" as="geometry"/>
                </mxCell>
                <mxCell id="40" value="" style="shape=stencil(lVfLbttADPwaXwly33tO0/8IEKc26tqB477+vlSFjb1caQzfFGVoLYdDcnbjnz52L+/bjeOPy/n0fft7/3rZbfyXjXP742573l/0aeOfN/7p7XTefjuffh5f57/fXybk9PTj9Gv6hT9zXK2U8xTl+O/8Rkj4/4uvM/6wP97iI7Hv8IFKBngmDh2+UvHr+JKIS3+eQAwOVJhK7AMqRVkPyIFSH+A+v7kYkDJV7gK8p1RBAFPoOQ2usbAYEB252gVEpgpyCJ6K9AFaRxDgI4X+C6kQg7q53MrUAnKknECAEPe0FkcB0CqqpNQHFBJAa6Ha46unAE4kFPuUr1pfwfti8RUoTxtFBjxImC2jwgylzRTj8IGI8J4tvkC8uIEgeB4e8NFB/ECQB72v+KFgAs/vDD8qESAgtj2g+AILltOAB/kOHXAX790j55EFPSD9SKvmLZ+wYfLQAB7wLwM/qgcw5oRSsPgM+QlDvmjXCLmxIUG+OmN7/u835JgA7vhxohQoUMkDQTABu1trm3lr+EEQATf8UAAHtgy3+X0rUCCIR/GZohGcowwGiuie7hMuGXqDyTr0FSjSNu3y1kutQ27WJPJPPtgaqL0IaNU7O9V11TMQhVoH4+j0jQMqjcX2QdDOA32ZhqTVECEzkb1dlU79CChcrtYQSYGrrASKPUtae7Rr1GsYj1bbNlz2sb6NtqvvZfD7OspdT6oWAUhb8YENXvDvJzF4BgRNqyVYPPL51S7ju3hv84X8VMsnN42s4bO3fGJ8yQbvEf/VustPt7A8KXgYptzuFasfKAaPJsvVfF7xaJk9fJG7i9eH663xbX84zJfO2//bW6a+mm+o/vkf);lineShape=1;fontSize=3;" parent="1" vertex="1">
                    <mxGeometry x="12.622242988149686" y="60.46866736080699" width="3.057419243656143" height="4.572597004215546" as="geometry"/>
                </mxCell>
                <mxCell id="41" value="" style="shape=stencil(rVfJbhsxDP2auRLULp7T9D8CxKmNunHguNvfl9OBnBHlvkmA3mbhE5fHTVO4e90/vOwmz6+X8+nr7ufh8bKfwqfJ+8Pzfnc+XPRpCvdTuHs6nXdfzqfvz4/L+8vDLDk/fTv9mE/4teBCoORmlOffyxdHnP5++LzIHw/Pa3lPUjp5IXZQPtX+/EIFKwjcAXykgDWwdID5iAoAjiR2gOgoIZMc1R6QHHmGgJI7QGZKggG901koYEDuNZRCIWBA6AA1ki8AEFseXIlmYuS0kPQaRDXEfwNKomQAhQQQV5nKAKjAh5rJ1QEANIhrQVybBHiQRNn3gEoeZKv+HgEJhNXxNewrRAVUiwwqpMXhNqAMRAi0ScJAtbSMv02EtKCsAAJ8qKERe20bjNOvVIppUAFsKuGG1xVQpyWZxzCB9MuFXLQAD0zKmYIBVBIPNQRnAdAksb1vzlcA0ChJsgBGVV0HDVpCgDjtQ6FYQMXJlGXQAEzSPhSGmnOognREiQWgdjynf7CAAoibc3PIVgZO63lxqKCIajQ1XleAjLoAt9a4rof/CXA8MB2bVzcByts4gsCgdtagjRmn8v35G0PUtf7wzint2qbzzjVAZ3Qfn409Q9eWfgnYWGSczaGNTcnZrr2xirEdCxu7nkbDtAq4Sw6DEK+qTLEvYs1XGEzxRjyBgow2NtyS9XZbbKvQmzgayVoq1R6P2oOLtgHhaem0PZUPyHtvey62x2fbfbC/yry356Nw6jqbrDxiS685bNlFyfDha9GmvD683cGeDsfjcoVb/7d3Nv203PfC/R8=);lineShape=1;fontSize=3;" parent="1" vertex="1">
                    <mxGeometry x="11.548585240786295" y="66.7922446336022" width="0.18362709668092175" height="2.896512122483728" as="geometry"/>
                </mxCell>
                <mxCell id="42" value="" style="shape=stencil(lVfLctswDPwaXTEUwec5Tf8jM3FqTV0747ht8veFqmFtENaquUkQVsDiRXDgh7f90+tu8O7tcj593/2eni/7gb8M3k/H/e48XeRp4MeBH15O59238+nn8Xl5f32aNeenH6df8x/eF5yjPM4g7z6aYIx/BV8X9cN0vFH3xFGpe/JhXT1RZqUuAreuPjKVpPRFEj0A1N6ASFwB/mdyThNI5HgdwJFYB4iZKgCEQKw5BE8xrQOikNYuxZESiFLylLSF5IjrOiA7KlUDSkv7fUBpWW2ALFECHEqgoDkUD10qlaIOa8mUgYUayGsO1VMFpVdzS9M/gBQfKO1aqWQNwLUkn2vsAR6EdQbUHsAZlLdzfbkKIiLWYiL1ANRyM8BYKNhCMQCYiEqpGACojZmi4bABCCYRGy6xARTQ1HNiDYeEXfLGQtywYEgzagj5bPLgcabZcNio79CVa9nKQxoNALdcN75nAGiIa23ecsAW+ilQacRhrSZKDJr6fo+Gjblhi2mDhDflilNdDOuKJ1M2FirmkDTpmzisVpMdAxsFbgAFF8cnAdm4lCki1mziyvDUkmPO6a4uBZ7thfv5LRIP5kbO/TiWoxqlWpaBblimCvcTWTe8ro00tuG2ttCwPkijhw0RuG9SkQQwvzlQ0YmbJYC0LHlRuySSihfLbt0QCZpMsqgGHaUxNMnKatwdELkNz/v/79PMNII6ki1ez8kRbrnSujo8DkZH1H2njsaRGZCuLbD/q47uAK4xu6ozKLY7VFExm0Di+5FrzXpVd6BqxNU+kA5SDebvMO7RqMO/J+MM9P1TN8dNdXm4XlJfpsNhuePefu8vtSJaLsT8+Ac=);lineShape=1;fontSize=3;" parent="1" vertex="1">
                    <mxGeometry x="21.190521168533095" y="60.84419690970708" width="7.248742826831566" height="5.196863227133493" as="geometry"/>
                </mxCell>
                <mxCell id="43" value="" style="shape=stencil(lVrLchw3DPyavaJIgs+z4/yHqyxHW1Ekl6wk9t8HzBZnh82ZVukm7aKHIJ4NzF7004/HL98fLsH9eHt9+fPh3+vXt8eL/nYJ4fr8+PB6fbO/Lvr5op++vbw+/PH68vfz19v/3790yf7XXy//9Cf8vOFCk9g6Krhft0+85Pj/B7/f5J+uz3v5KFkn+SCpncv7JiFO8lFqJvJR4vz8Ks4ReVM3zPo7SfUcUCW4WV6l+XP5JJpn+SKVyKuEWd4MpEoMivqEIiFR+dlfas8nDlOJfpYvUogDkvg0+0slk/sWSbP9YxseOXaYQ0BKUomBLCJAo+ylFgIwF88n5CKZxJDZFE4oKp7cOWTxZQbUEebHTnDi5qiogd5Bo7hZpZo5wNJkVqm5EYmHgGiXngOvqThy6ZhFAZBopCbz9Jz6LUsjfkhR2hzbrQ67HQOseCUEJOKHbLGkCFBSLXKVBoDC08Hybbm0knwo9rw6A6IUYqXqRcFKQQpRqdrz4ARHrVTN6nMC2See+MGeV+dLV8tpcukeapAPvMq0pe2YGVhOW2y2+dKlSSJlxtxU5xPKVtqOAQVjqSRq1n4CqKT8Dnnk1wbw3EqWkHMRyE0KU8l6HwAKTVELtTS3k5xp1eihASdYhyeFrDYsZDlII8FXC1rJ+kMmnrbYBIqR3bjVMUBHBm8ta2NNxwA3NN4AdZSF4yJQsZAlCz5SW3uoASDTLlqMNygCWPW2ygfEKm0pdVZb86KSYyc4LJUGiKw/WNutaCXWp5MfVG3nB9rjChYB87QnKsWIZu2xxAAL/bHwZippGumyS6DGmIAxuNmsefvkjGuUjADKZuJgnHsA8bRamVlVYnfYusEOQK2kSNPz1vXOADCXGIAVgQ5ICAgk47pKc5/Oyh2nmEAGYFS9k0SHANZQDBAXAGtZBoAE6gCmUsJxpqvEoxUbikplsZQG2dn5wZFi3AENAcpVKktosJlYl2JsgMpVCkvG0Ttsz9tnHCEn3dN1AbwTS2UBsFjSxQ9pPOIMgG2XrwJ6xi2Vj4a3LsU40tm7p+gCYAOHAdDTSonuxwENpyxrKJnNcYpkvbcscoLNcRBLnWuQ4LMu6j7Wp9NogTvqwAB2RQdtN1Ky3jlkQ4BjgDqWPBtA6RrHqPmqEjuhZOyiiUerkUSYH7qViONqWFhlpqyyE11wnHmace8yEnLHlyq7Q1v6g6OFrHkpQH88VckmlASFzLKcz0C6VD5HzLqOZTYDsZVjqwsTaLTytYbl3uY4eod2MClGwma8c0gFytb2zo6IywqLlb6+KIGNlJNAdDK7Qt+1AI58xgeWWCMds/owuizJCuEOFq4ZTmh0sVHXnRefwO2KUAUsgNnezqxeYG+XxhbsGBBxAdw3UgRgwYkbqTYK+llxDQuANer7jHTfwTuaQlYafcMjWCmL6yXqGAbPBjNc3GUafX0wA0Ck46tmTAiLDaaSBtxLW71lm75QcS9dlXbqEPGEsu0vjwFuWWQrzSCfF4pV6RTklzWzzbu0y41v93sKxk6w3CceegH3gkag2MZrq9RDXgtdRznk0f39DLHoUrhDodnpkTXYJ3TWwFndlxFVx9mPlNgrTYO21K+xzz6LhwoEYPS6Y/mC7wSUbmXt6zY/31NzWrzBctxRmheW9eQ74dbGrLmTZ6+W2mD7O3liH5OH+zpehBbW6fiItDX5uzzbb5m8ov6sO3V5fD5Lxy6/+Jc/H9/3Utaim3vu8pHHA8S/pwuSD79vf1fe/ri/3P92fXq6/TZg/z3+GMA+uv2QQD//Bw==);lineShape=1;fontSize=3;" parent="1" vertex="1">
                    <mxGeometry x="26.700020125421105" y="66.47901792284506" width="2.468816419219865" height="3.6748035454154335" as="geometry"/>
                </mxCell>
                <mxCell id="44" value="" style="shape=stencil(lVjJbhsxDP0aXwlqpXRO0/8IEKcxmsaBk25/Xw4MTUxq/JrcxmO+4fa4SLt08/p497LfRX59Ox2/738f7t8ed+nLLsbD8+P+dHjTp1263aWbh+Np/+10/Pl8f/79crdILk8/jr+WL/w54wK1tIAi/z2/YMrnF1/P4k+H5wvxSK0b8UjSrosXKsGIC6V4XbxTjkY8JMr9unxYta+ARrkCgBBbQMzUGPgbKVkPUiQGGmKjVCygUwcakhpgTcoygrwJyIGyBZRCFQEaBTaAqmkEPpRMyZKidooIoC5akySTAKdrIbY8EtWAAEqNbAAtUgXMk0Rs89AKJaBBKgXrQ5PxZhvQSJxJjQrIQwuDOSugQx9aomij1JlqAYDiqdEDFaRBSJyGCH1QA4JYQCIBJi3fs1HqmXoGgOxbTK8jlduATmJLtDesoU8a+qiQa4A+ASKK0hYANbJNkxA1FqfZAxp2OhcP6DiswQICMzEKUxsWXKpAXmu9zDYFCEjRAwRrCHWKK9bAc+bQyFINyQMiBsTJJEaZ05HmSq7BidKnxrRkBvPb9crlEwIBaQI0FFaNevqUD32DSzBKyhyZ8gA2mQs2fzTVqmJKdcUAmWyCdO1Ts1SdWEOcKwgXRLcaPlDVdbYJNQ4t0qmEGsjE5wFpan4yynYbEPwW1wt1sNDoJO+uSDNcdFsdg/liLsJRrTuWG9URkkn3neh6XxhFtQ3QvDqnGS4DIlQtXXU/yWhlKtNCI5AaoqcN64PGjUHfqFP/1p0oAQ1VqWEBgrlUlN6WS+oVmu0l+i6gu2kDict1TPIVoKca4HTWxNkolQqX47R+bz1CrCW1fUipY/9fATzouA1gf9DSY1ABTocy/l4PWhpW0L9DoGh9CHhCiKeSnhVRq0zUbIHq6osc8MRLFIA4j+H0foxGA3QaPQxLeSIEw22S/Q7DsGZ4kOtdHC0w+rHqxHFkihdH2zz7kcmwQYQ5kGiYBd9DVRztCOMu5EIcXUf4VsLwABn8msaw8Xzypua/4vrwfin0cHh6Ot8pXf7vL5H01fkCKt3+Aw==);lineShape=1;fontSize=3;" parent="1" vertex="1">
                    <mxGeometry x="40.786887611990664" y="60.906874502668074" width="3.291250330395451" height="5.109505653582623" as="geometry"/>
                </mxCell>
                <mxCell id="45" value="" style="shape=stencil(lZfbbtswDIafxrcEKep43XXvUaDpEixrijTd4e1Hz/Bq0cHv5M5x+Fk8/JSoQR/e909vuyHw++V8+r77dXi+7Af9MoRweN3vzoeLPQ36OOjDy+m8+3Y+fbw+T7/fnkbL8enH6ef4hd8TV5QkjFTgP9MbIS3/Xnyd7I+H16W9UEu9vVAUCAh3QAhUEgCYYu0AFeIGAY4dEJkacCk3KtIByYIGLhngXMpCNUNA+xUsDQXFECn1ZahMIQCgUmw9UCmBGJoF3cfQ7BMghrYK2oDGAEgr4H8argLmcWAPZODSGHTwQAVpzYWkl4awqQUEkdKcxcUSDfgUI9XiAVRqzXNhF0ACLin7UhsgQBvB8uqASrkCwLKYPBCAmDQR9/puZf7E9SzpKuhCKYI6KGX1AOzRRJI8EFDLZUp5tQLY+mqek7iMAazQIsWVS2hjsrryqg4KKr1Q84IoqKvLlZ4ToI3GfsMf5QoKUWVuyWWTKty/2wpowKXU5jotAVCIaGrOK5dAlrRSFQ9kUDkNxOoB1EHWo9mtUGGW7gZEKfZ733hCILmS9soYjyBQBqXat/TGGWcd3Qtp4xDVea648ZTWeUq4cQwIlPv8bMwZVuI+3o1BxgafXqUbk9KqlfEkZs5mZ85gQ40kfXaYClBP89sEw2FB0lz6T/uA1Gxi8N9npLVAkr09ODPH0pd77G1P0zv8SXZUeHsUb1Zq3h7lM9uoFYfby1XCfWq4e+zftLeHzzvGy+F4nK4oy//9ncReTfcZffwL);lineShape=1;fontSize=3;" parent="1" vertex="1">
                    <mxGeometry x="43.979893738339584" y="68.16963064381355" width="0.08414021510801555" height="2.2245261317319724" as="geometry"/>
                </mxCell>
                <mxCell id="46" value="" style="shape=stencil(lVnbctQwDP2afdVY8kX2c4H/6AyF7lDaTltuf4/MjkMsNwf6tpvoJLoc3ZxTvHq+vX68OUl4fnl6+HLz4/zx5fYU351Ezve3N0/nF/t1iu9P8erTw9PN56eHb/cfL/8fr7tk//X14Xt/ws8LToRK7SgJvy5XmFj+XPhwkb873+/lA7FO8pliPZbnSlIm+Qafz4WazPowqQJAJs4zIFFDgEgSZ4DpiABMMr/BfFT4GNAopFk+UwjH8maykzeF0rF8otom+cgUgU/jMG+Tj9QyiDHlOQSxUAAOSlTc8yvFdiyvy/ONE8A/LBSDB1QUsTo4OQApUAKATmL1APSGKFRnlRKPxHjdR4FkASQQtKQUogeUcgzIQto8QBFASbMHVMDrwj6XDZAjAETSxYaA3lAGMXeRVpAKpVJyuVApALeWRplnQIbJXDaqbYBEAVQ8XSJtZMkgDgaoLv8bNZQ/yVcwKxgKEkiV2HkpUAZsVUugWSUrGYJsMLfOGReNv6DGVPYqJYFFpkbfeFKFcajZl5lshRMBqs+4IsSAfM2KyuwlI0sCgWtLimrBnST51tDdANzadFTeDWAJBN7AIYzetDXohl9h5KwekAD77Lbjt10pIEf77UUlVJjstutwXUkUuepb6M4PR4i86NQAmwzAi9WIfha6WjwAhc4AZbE6Ixv0Fb+irO6A7AGounYb5hTqnsZuZfaAAlqK3U7FAzJSqS7sqzhJm6+u/Q2ITG2U970NyK1GBFm89I+UWyKNiuXrWR1xCrUFkLFOpXkAGje6AkvdaFilIAsARW6jzv8D/HLSxvpxxO+2JLXipNbFhowBhT0gIva9GZAXtwZIprbsA9aE0DRtz4szwNpcA0ld1ZfjsqXIUW9PM1utVWfApSpjjNyGgQyXvmpT3OzWhMuGzVguR5PAwmQ+cXGICocBG/v8UJZgNVYZZWi3KKImZ29oy5yIOnWfRN28LnC11OirsdkA3Rr9ZmbLKBpPdDsu2G+XyK3B07svi2gj2Ir1fpUDKtlW44w2agh6g/mkegBcg3ixAc+JealLBkD9oW+X0QMEFLJUfEPpKoFIp60K7YxG1duo5qaT7iW85XPxAJSirH7UNQCj0y72Hagv7Yga46Bnf+4AbJZBtP1+DMIWlpMThUPoMjbYdqzIQ/6oy/ZElDsytN0VGAX+Sb5si47zygN/uvnTnpBQ5/EFr1sE/M/BDwCs0ACWsbnsjidR87TbLpX7+SNSKY+Ibu0ZUo7XY5/htMMT3/n5AQ6GnXPRyUeUlWFM13/lBVDObrujtwBPD/uBtpcPyF4eDN7J4+ertxd1ZcuBsMijlF9OP7cDpiN5RyDzP4qX+DUywEO9nsPZyaMS8Zo8mrHf/EXin/L24+/nj0/nu7vL15P9ff+5xC5dPrXE978B);lineShape=1;fontSize=3;" parent="1" vertex="1">
                    <mxGeometry x="45.702679944850956" y="67.60575293799786" width="2.3295188617682876" height="3.7108742081937125" as="geometry"/>
                </mxCell>
                <mxCell id="47" value="" style="shape=stencil(lVfLctswDPwaXTEkwec5Tf8jM3FqTV0747ht8vcFq0o2QWlT32R5lyIeywUHfnjbP73uBmfeLufT993v8fmyH/jL4Nx43O/O40WeBn4c+OHldN59O59+Hp+n369PFVmffpx+1RXeJ14pVExlOfMxvTGU/d8XXyf8YTze4hPl0uCZggV4T7FdP1FggLcaby058IGciFNLiJjgyMSG4Bx5EHIK5NuQXaEctwkxUWpj4EyubBNCphIagk/k8zbBF4pt0CFSAUF7Q9zGECMZUAeWOrSE5Mm7bYL0wb8NzIRsKYVtgk1kcktYemudYOcyzYTi5mZZr0OHjxRA3SyZtgpVHKAxRCnc4UEARrf2p3jO9+3HFo3PoMZGC0HwEe7HdPtHWha81XgG+Zf9d+s7UF9DrquXSQjvFV50B1Qm9codHuZfKaDiYb9Z1+0f5FMOwq4fLFKY1nzNP8in6KvrZw/yubZ+BPlZ239Cgifb9Q865Iy2sorH9VXOYZYW/88GKrDAaw2aYYP2Akiw4XqBBRhwL2APE9ofEA403NoBZOH6/QGH838fPnQGEGD+rZktbiFYKkiRYqItQTwMZUhGDeUZ4pIW+XBnGokpg5i5zKPG4vQBGrfPFNoulVmCQdWC2HQbtI/QuGXUUF9gmZDAF2TU4PYLrsABKpu5rgvBwi3lSFZpP1AEUi6mGzOX42OdwMRt0BEeRnU2USFgfFc2A1Mk+BgV3uL1s74YGLx+0esjM7t61w0e9HX1Lr4PH6zGo4tN0W6/nMZbeKUCA4eVahUaj1R29a4rHt1SbrzrSkBmUD+QFD6Bc+Lum+KneHm4XktfxsNhutXe/q+vsfJqugLz4x8=);lineShape=1;fontSize=3;" parent="1" vertex="1">
                    <mxGeometry x="41.32326115092947" y="72.67739026934191" width="3.970324902873771" height="5.378124684159997" as="geometry"/>
                </mxCell>
                <mxCell id="48" value="" style="shape=stencil(rZfRbtswDEW/xq+EJEqi9Nx1/1Gg6WIsS4o029q/HzXPrUU7Fw2wN8fhEUXykpIHvnvZPzzvhuBeLufT993v8fGyH/jLEMJ43O/O40WfBr4f+O7pdN59O59+Hh+n388PzbI9/Tj9aiu8Tpx3jpxrWHBv/16Rj39ffJ2Aw3hcALVSlt7eU0aAkPQOAlOuAGCqpQM4UMzXgSJUeg8xkABAKrnaAYmpyHUgV2LfATlSBh6SeuhjEAX4OhCFPHdA0Sz56wBHiqEDqoNbCgr0hatpLuUm4Cj1SaplXmHbAYVg7ZGSIkmfU1VKAbpQHYm1F7C+6tKvHAhIqY/EebUjBwAtWrEhOwRUCisggJi1CDFZAHVbq5oBVIoo6EpJLMCgzBp0ZgsgHWlaa7AAKrQWTnoPiym1PQGIi/VQgYdEIa52hHpnK2TQzY7KKmIOyN7MYK1yBftxFLK1TyijqxqXOQPbw8UOVG2EiubjRitLASN+rs5nO5Pt/G0ASJDPG0AFFfDaVqvO9Lgz/SqnCXhQwIqowDZoqjAx6PhI/xHIlIyMtDGArFtWTd0c3tF7hItTjUGho5uvBotzM4LOT85KVU/miGLWidqXQc9+AR6ytmIP6O0ig0LrjksP6P0FTVR5V9ryhgRikFvvYApwP/DwJa856O0dvB8VN0v/wx5dXoqnatdnMC/KaiCp7tB5kG0naGug/RcrCnzeqOyrjRfaq+pX64P9aB8mmx8Urw63aPOD8tkmzy310jkidn2kh5u/Kj4B6MPHR8zTeDhM30DL/+1Hj76aPpj4/g8=);lineShape=1;fontSize=3;" parent="1" vertex="1">
                    <mxGeometry x="39.548819145484245" y="79.8774589996857" width="0.2978180080922036" height="2.6753852630273567" as="geometry"/>
                </mxCell>
                <mxCell id="49" value="" style="shape=stencil(lVrZchw3DPyafWWRAA/w2XH+w1WWI1UUySXLSfz3BrPF0UxzthW/6QBmcDYa2L3oh2/3n77eXSR+e315/vPun4fPr/cX/e0i8vB0f/fy8Oo/XfTjRT98eX65++Pl+fvT5+vvXz8NyfHTX89/jyf8e9WTENtQkvjj+ocYYvrvD79fxR8fnnbiPTQF8dpuiyeb/36T7/22vJSg5SCfQsq35VWDZJBXYn5OoUaUJ/aUGATlsxB5m+bu5In9Nc9w7Owpt+WbhyNhfIi/rYaC+TK7LW9b+N6eH4k9VkKsIN+Jv9aCyEFeQ+Xy+RjPGmKk9tgxXxa6EnkJBfIroVYS0BYKBKiFRCrCM1bsoOAhMlJyXhLQYu5zJTkuLbRjDtSTRpJc0mzxTaEEIU7njD4oD6v2acBUyBvOnCvkkI997++sJNHquHNsnFxDJk5LCx1MahSKPIjlCF3ZZu7PFbz2Cioo8cHBKK0mkSj5v6uiAoPfkmcx7xSUKNQ0Ld4pCAGAujT0UCBhbTIN2CmwxHnHxb5EiWFSms/b5aFz0ICh47BfSE+bBTn6UCQ08oYeMUqlhEyi1CXIMdM+WYyY1DN2XJUJ/ecKJdSjSbVyHxqixhhGJA/dZ+Gxltr2znOFjsPEIkV7V2hHHyxPPnBOR+L2wE3DKMHwV0BtdC8vFlebA3NTyBRcPRF69LpXOoLcAIE3GC0mr2+ADfeqEh/a1i/bkIs8E14KKssrGPHREAWdaAzKdDb9ptDoWBxDq2BclZSf4zdUk2eu85ECM6hraMQkJ1/tyGa8zwt5Q8rzebvqKyQPgvTT+iSw5y9Y6FKfebkhD5Xk7WPE4zP5Qko1TZDbyTN+7v5WlBeWgRN7IiMBIbVFnhEf5G5mlD9nbOUBR+T5Ps9t8ZcxhtCX+GSCLQWniMtXRiVxJhgftXn2+K7eEpVXQ3kGpjq3m528UnnVRZ7W22o/29d8jK/2E/mEwDv6kfZLXeqTLRdpQuY+v2x/R8Aa9UP9jUv9s3zJrMZ9/RP8EVyXR3+x+wDOgHf6NyPXfAcflhkz/CX2/6p8Kri1OJXMDOC8gpaJkUmGfUE2IAfCN6+6KHjXse2xhAIEp8zF59bWAl3gk5uhlpMJGBvODdiYcbqCo97oXacZrv3v0BXbSN//JWm2ZLpRkjaoQ8coUT5esDnH0sDeUOcmt6slZWS5YvGNdiZRGkwX5n2mHM19ABboKwIbIH2ZgL6ENOaDYnk3flL0POgxSr5IMQz2DgbS5ata46VhsG52mmmrCNu+btKzX17eoCGzlXnZ4st2LjlvoD5ha7djs1WtVVwQMh/Nnqa+3Gvooa0heXQFtnjVhMfCoUAayKOedDGJ7SyG52Z3mvHZvJ1bdwrMJEdvYFSeB3qZS3hCGonjWxEWX6Scx4eiJfSBYetg2Use2JXdaaoshza2FokhevsQayysax6UFp/noUB5p5mZ80wLXi7UaAON4+MRKpWfVL1a49EHjfTUURe2KoUuzNXw0xdJFO5bRphJlQ/2Punj7p7PGsiBDD5Q4S1tGy5u4E1nqMvDdMjcnogbnlAgdpgE6iP0nuUoCTgsdLrVgkc8mRT2vIgMIc/ZJJOPuGELvRt5l5Tl+aSCVHGj5fZ7BS/2sPgnQzwVfu3DHkv0lp3wNsgJWMQRmOgtPiL7ShQVIy7L/GOmiJUQ6UeDEU8JMTT6dIDDSOsg4mIX6UYR8cAfaZfE9VPWRONuFcT5kg9HokghZxnY/HT7i18AeFfcf3j7rsGXh8fH61cV9v/H7yb4n67fa9CPPwE=);lineShape=1;fontSize=3;" parent="1" vertex="1">
                    <mxGeometry x="42.03913943760507" y="79.18855724155537" width="1.7840250023302395" height="4.547790173666687" as="geometry"/>
                </mxCell>
                <mxCell id="50" value="" style="shape=stencil(lVfLctswDPwaXTEgwec5Tf8jM3FqT9044zh9/H2hauiYhLyub7K8CwFYgAAneXjfPr1tJs/vp+Ph++bX7vm0neTL5P3udbs57k76NMnjJA8vh+Pm2/Hw8fq8/H57mpHz04/Dz9nC74VXK1U3szz/Wd4wlfDvxdcFv9+9XuILudDhhQThA6XU4QtxAXhH0vvjPIV0nVASxdoTCokHBCaJHcFHioCQPaXShywtaauEJJR7QhDy+Tohqr3cEfQNx+sEtVf6GJKnzNcJEoh7GbKjDHTTnHD/hVybkqsEl8n7XujUpFxXetStap5BkqTV5RmfKQD7TLnPqZZ6qQifwoivwB+mMNQdMzHQgFujXH4AtAKTZ4OHAXM1AUN/2I94JMA5ugs86hvFy4gXUEFMztj3AvNj/HcQL2nEM4w3OoMHTcnjSTfjYcFlo5eD/pRi8gPtV1NvAbT8Gj5i+0YvdKSo/yafBdZDMvFWmP/Y+/8fDWkEqDBgbxsYBuxMgaLZqt4a+xk3vG1I3MBGAHyCsjlB0RjTeI1gDjf8XXgx+U+tRNYnfTtez3gH9XJqrk9QibADfKDQK5wL/IIuDiPBNdGvDXrX16gOegaa6eIgfVFETwKSpMvKMDaCb2lYX4fcuKxoVB705bw49GnVvBWkW6TSZ0mXC7TdVG6D6ExwbUFaJ5hlQncJtJXmdtKeQ6CM7Ndx9jEcZXPh+wGPRtnciCOeQefMkzeMeLSb6cGQRzwSQCXmEQ9Wg/lgu9P/MubToVvHyq3mRv7rGK8AfS8myychgKNxlZBwRo1H+UYEd93jbuL14fPS+LLb75c75+X/4yVTXy0XVHn8Cw==);lineShape=1;fontSize=3;" parent="1" vertex="1">
                    <mxGeometry x="20.886029759863014" y="71.23723483054039" width="5.749969482541154" height="5.743828698448101" as="geometry"/>
                </mxCell>
                <mxCell id="51" value="" style="shape=stencil(7Vrbbhw3DP2afSUoUdfnNP2PAHHqRV07cNw2+ftSXWg6Q+6cyfYlCLBv6zHPSKIO73OSd18eP3x+OEX+8vb68vvD3+ePb48n+eUU4/n58eH1/Ka/TvL+JO8+vbw+/Pb68ufzx8vfnz8MyfHrj5e/xhu+XnA5U6sDFfnb5QlTC/8++PUi/3R+3srHvpGvFBuQjxRlIx/0DXkfkBr1tAHEQDEBQKJUtoBG0vcB0ilstySFGKwgkXrcAJJAJcVCYavUHCgALYVOYgCVOlghCMXtloqQgBUaRd7KV0oMtEo1bK+ZKaAjU21b+UClIPlgaBRJwB0E6sXKp4rkK1v5DPYTpjZW8gVdAIWb5Ber+s79MOV0y3mZJN6iT71N937EUJ4WsrrfDoxM5dnKN8C3a+8vUN7uX28Q6l+ClUduSCgZfjIVoP8y37aSZ8Q3PYAx4E4ZHDioRVYLCGBHnhJlca17Xqs3C2jgDJIoVwcQ4FTidGprQNwHZGeWByvkbv3QAUDdoFUrBtRM7AAVAFogyRYggHqtTMtd+eoKLq71ueMFUKgBQFfbNVvKVIA1d7HxqSQYbnqaIXgBRGpohWyDctG7RytkquYMPGPKHsCQT8nSgQF1jeLZAioGJAcogBoKqN0CMgJUCsUCEjp0tXFkrAD8pAI6OwC6h2YzkaElYNMKSM3dA/B8CiiGfDgXUYC1aYYWNwDdAlD0GYBoAdDiOrHxfBG6mb643pWJooRhbMnYwwGXmgtxCXOpzQxhAXTol5RL5gwtz7RgD2DczHBtaIVi0yr1VBVRo9iAok8Korc6461fGnTEK+QtNfTu48GWqgWgVKa7+KAAyFbnyBRQkT04V6mAhp1xEQvoiK3ZqjUwY24odfwSiK5pknMNQAaRrlwEtNFEsbiLwFHRVA39wBsnm0YrQJBzFZvDKSAgQHI3V48iSjKAJTnYAxj3rYCAHZO96YjJpJ4sWUBDW2qTzd8LUK3zTVtSIiR3aBwgWndqRS0DdiWWIlDJ3Zd0ZwXoyA10513TDPZ7AOv70mTLHsCUcQo4yDaq21JBem2zPbUG4ATIciPhRLTaKmhoCQOkWADjrM+yT44Cr7ibTogadWp9BYg4Une3JcY5mbcgWBA0574jrEYHl4oF9AO2Ohtl7AVadFpCZ+jOGwvuQl016nZgo46u0LveDKi2dTJMBG3pngHdM6CfKAMSFxbbJPDuoQ2ZCi7NfI4lM2bsNkO2F9cO6ZpNpZVwaM+24tVaDnaAstXSqBaxF+Db6tFspyyj4sVaqqZldBAhflDLCJeX95bR/2sZHSQPP3/LqM6ByYreAdG7OIAc2bTtTGdK2FXaznSBY8rOM9de9b5RstGK01InBmdowbJVAagDVLMdvIzJJri40XxvFhCBlvwMYgDQ0MIPHxmPvN1AegAOJjVunIUy11jdPI5n1XIdwHN6tQLAeZaboygATQgDW3c/RngAoEdwI2k4tb+PpO8j6YP3/8iRdLhiMKjfI26i1qEbKvN0K+eOMosQbNJZDghdbVMs15kvXbdIN0XMDCknTkdJ4JBc6qxMJ0AyXEFdr0lFIq6GU7HZkV58BVrKbO04JJjsZHFEhVmtyudt2GeYfQ35buQzsOMstkfHsEGs8qYjcRAuXQ2JczuVN/02hu227Mo1XJerfLfnRa2wnO0cDX8qkpekbHVeLF+sPIr1Km9yX4aV3fhk0PKnIP7c/onhgbz++O97xk/np6fL55Dr/9vvH/XR5dtJef8P);lineShape=1;fontSize=3;" parent="1" vertex="1">
                    <mxGeometry x="18.39953587757951" y="78.68773516733825" width="2.63971831565046" height="4.00638348012288" as="geometry"/>
                </mxCell>
                <mxCell id="52" value="" style="shape=stencil(lVfLctswDPwaXTHgmzyn6X9kJk7tqWtnHLdN/r5QNXIE0Fo7N5nGSlxgAS6H8PC2fXrdDJ7fzqfjz83f3fN5O4Rvg/e7w3Zz2p3laQiPQ3h4OZ42P07H34fn6ffr0xg5Pv06/hnf8D7hHIU6gjx/TAtMLv9f+D6F73eHRXikWlS4p9TWwxvVrMIzZfB2F6g1Fe+YfAKARsFpQKQW1wE+UY2aAFMBDEIgHzSgUAFbio6c3lJIlAsACAdWgBjJ8zogFUr6CykQgy3lZIucHRWwpeKp6LoVJnYAIBwMQDYJOFQpk05rvdT+OqBR1qRlxSPpRWKtJVkZf64CRKxJA4RVgICWLSAitbJkkS0iVfyJYgEFFKJ1HTeuYBKl21LDgNQDMAevOSzysIbgrhIN6LXVK6wb+kKds7hMEwZkbwEZsa5Wr2PiwGQaAV2pIyp1nQfXUq+YQy+mGx3hqgU4XOrYkXaocO1KWm81aac+SLrZQXMjrStNiirX7Kk10sKsW/cFqL5m5/EtfcuOu1LDDpIs6pa7o0ldVzo0wUf59QA0aep80C7ThFvoiwDfzY04C/L6KVQp6LxWPAbkVMtaG3LyBXT0VptWOUkrSGtxlLTA5ayOoHA5ktNZyh56vpTJ6zEgfiMik1iJNUAcTQY9F9pM8eKZMjnAIXhi48oqefAFMa5Zkxbn65EVrdbGuUQRqNWJZ9Kkxbsio1hnK3ypG5ytgYrWRSAHZMHzv5++Hjk+tmaJoawl3JvwhN/OJhzph21xeR5O9+7dg6bn2Vwvbjzw7WYw8izulfBkM8NANWzdFx66bPsEhzvbh3gzbs7bfVS/eHW8GS4Pn7fUl91+P11yl//bW60sTTfi8PgP);lineShape=1;fontSize=3;" parent="1" vertex="1">
                    <mxGeometry x="27.6390243035135" y="71.80089440179756" width="3.902173802129979" height="6.543152043585431" as="geometry"/>
                </mxCell>
                <mxCell id="53" value="" style="shape=stencil(lVjLUiMxDPyaXFWyLL/OLPsfVBGW1LKECuzr71ezKYdYznTgNoTusSx3y9Js4s3r493LdiP8+nbYf9/+3t2/PW7il43I7vlxe9i92dMm3m7izcP+sP122P98vj/+/XK3IJenH/tfyxv+HHlCqS0k4b/9h5z///D1CH/aPZ/BQ5zxJazjRaklj9d1fBSKxePjOl6ZEjt8QvhGITq8gHhSoZAHfKBS1/FZe/re8ej9Jfh8MuUE8IU0OLyA/VYhLQ7PDPCFYnX4IOv4Zuljt98A9NAS1eDyX0A8rVKUAZ/w+xvVMZ5KAvCBT/k4bcC21OAKLqJQSAoglMkCsb9iLUdt1FBkiiik2D14IlScpeBdppkSkF2t1EaZJjsHEFLNXtc59pO5TNDu204wazQUklAb91AaCUhrDT6tNZGiFYIPqfG1FaKOBNsVqKbLCuPBmbqgnYO3pxEU1CMjsHgCMlxl0uwJFcjbsl4mQsME7zjGRamYh+clUFUtlHnaBDCEEcJ0EBkcdclUoycgjy6EKaSA98AuJDMhypJdDeoJGYVUiZMnJBRS7XffGUHxUacpJEQw9UmZQkIe5S7OMwLUtzmIp7QCaSwenQ8Olw1NnqA4pDDJO6MqwL7JWOSNChNPWmqwuC6l1LUx1z06pwmWgXLBEBUUSyPIlFeo79z9cn4QKKQ86RtfKZ8nWJ1xclVsOevH3KatIQMF3whlXMFuuYgI1RPKqUdeE1McxWQ3dcU9qLsWrRfI6NLSbuGzboPRPVr8LWf9jCJDtN7jnTqmAtVqHZOOK1hPJiAk68lk6vqQNEwI6q7Fco1Qxj2EU6LXCDKqtcJZyXp7HfGJCm4SXY4E+nPp4KbZCtmzeh2Z7pB3xMtIoLBzouxnkwzisdmwjT1A7MPQ2uyZPR7lx2bbOuZfiT81OyucZObZ/CSQD87+2ivB5fdfgKNPC14NCtU8dcIK/cj9bnmHo0ucfS8V+wC0Ag/JwVG7Oc2csSvvo3CF8CkYNAJf2CoDl0yJFDgeTMcksIZMIhB4U3zy69VVuD28fyh72D09Hb+znf/ff1izn44f5eLtPw==);lineShape=1;fontSize=3;" parent="1" vertex="1">
                    <mxGeometry x="31.267211711408606" y="79.7047703061462" width="1.3088908717979875" height="4.007310668897172" as="geometry"/>
                </mxCell>
                <mxCell id="54" value="" style="shape=stencil(lVbbbtswDP0avxK6UtJz1/1HgaaLsSwp0nRb/740PNkmMZ+gb7J1KFGHPCSH+PB2fHo9DMG93a6Xn4c/4/PtOMRvQwjj+Xi4jjdZDfFxiA8vl+vhx/Xyfn6ev1+fJuS0+nX5PZ3wd7bzFNJkFNzH/KM2SvOf7zP+NJ63eE85KoPClNy+QcjkWRlwpur3DWKipA1ypQpuSIlK1gaOfNw3yJmaVwbJEZd9Ay7dgW4QHdW6b1AasaZViC68b9DYvkE8Ahe00klf8R5w1GrfXvEOhFnwpRp8Ruc3itp/TwmEQPClaIKoIH8aNe1PotAwXp8vMQ/YHx0wITjj92o+hTD0XtnWKScZgvFO++PvBKxQjOYC+GAmbgYPCWUr40oBnb+IfJE9VL3g2QbszvlGMJEYnc/ktP+BPOKTKVtBNixIbwUTcLxqMXiHBZzZno8FYPzx5ECJEzxnw0/A+JYM/6jAebe8bw1wRIQ2qvoCpoYqqPQtTWjtJWmP0H/6WAUA/fkivgrfWpDRd4n+v8m0TvimK6FWnEvf3vQ9FLPEFHROZCEZiCxmm6SMy5zEiDVJReouSGsfbZmoYgDCJirXWdRw3YpW9lNeoXGFkpGNw8L0/X3bC0AQJAmSxScQAxk0tC4lEdGs4nrfWvAFThIyN+gQS+VLgFBhwzSy3CvNHt7wE2HOLaPbgg93/Immj3koAmcHj4YL9ZcH5Lt4WazT+Mt4Os3D/HbfTu/ya5784+Mn);lineShape=1;fontSize=3;" parent="1" vertex="1">
                    <mxGeometry x="31.45829660853218" y="81.89728598450563" width="1.2646759940375072" height="0.5458111537738027" as="geometry"/>
                </mxCell>
                <mxCell id="55" value="har node pe jaake dekho and see ki left ke saare nodes &amp;lt; Node &amp;lt;right ke saare nodes" style="text;html=1;align=center;verticalAlign=middle;resizable=0;points=[];autosize=1;strokeColor=none;fillColor=none;fontSize=3;" parent="1" vertex="1">
                    <mxGeometry x="43.82" y="39.28" width="140" height="20" as="geometry"/>
                </mxCell>
            </root>
        </mxGraphModel>
    </diagram>
</mxfile>